<?xml version="1.0" encoding="utf-8"?>
<!-- Generator: Adobe Illustrator 22.1.0, SVG Export Plug-In . SVG Version: 6.00 Build 0)  -->
<svg version="1.1" id="Layer_1" xmlns="http://www.w3.org/2000/svg" xmlns:xlink="http://www.w3.org/1999/xlink" x="0px" y="0px"
	 viewBox="0 0 200 200" style="enable-background:new 0 0 200 200;" xml:space="preserve">
<style type="text/css">
	.st0{fill:#969696;}
	.st1{fill:#046D51;}
</style>
<title>icon 1</title>
<g>
	<path class="st0" d="M37.9,151c-6-7.9-11.7-20.6-13.2-34.6c-4.5-42,25.8-79.6,67.8-84.1c8.5-0.9,17.2-0.1,25.1,1.6l-10.5-10
		c-5.2-0.3-10.3-0.2-15.4,0.4c-46.7,5-80.4,46.8-75.4,93.5c1.7,15.7,7.5,29.7,14.5,38.8L37.9,151z"/>
	<path class="st0" d="M172.5,81.7c2.3,5.8,3.9,12,4.5,18.4c4.5,42-25.8,79.6-67.8,84.1c-17.8,1.9-34.6-2.7-48.9-11.5l-7.1,5.5
		c16.2,11.1,35.7,16.3,56.4,14.1c46.7-5,80.4-46.8,75.4-93.5c-0.3-3-1.1-5.9-1.4-8.9L172.5,81.7z"/>
	<path class="st1" d="M195,75c-1.4-5-25.3-32-25.3-32s16-18.9,16.6-21.1c1-2.3,4.8-7-1.2-11c-6-4.1-9.9-0.7-11.9,1.3
		c-1.9,1.9-15.3,17.1-15.3,17.1s-33.3-18.7-38.5-18.6c-5.1,0.1-8,5.2-8,5.2l34.8,28l-13.3,19.9l-14-2.4l-7.1,5.5
		c0,0,15.5,4.8,18.9,8.3c3.4,3.5,8.5,15.4,8.5,15.4l6.8-4.6l-5.2-16.2l15.9-15.9l33.2,29.5C189.9,83.3,196.4,80,195,75z"/>
	<path class="st1" d="M124.3,80.4c-3.2-2.2-7.7-3.5-7.7-3.5c-33.4,40.5-75.8,85.4-85.9,87.7c-3.8,0.4-6.5-0.2-7.5-2.2
		c-1.5-2.4-3-3.5-0.3-6.8l-9.9-16.5c-6.8,8.5-9.9,23.4-4.7,32.3c4.7,7.7,12.8,11.5,23,10.4c0.8-0.1,1.7-0.2,2.5-0.3
		c19.8-3.8,78.5-72.4,96-93.5C129.9,88,127.6,82.6,124.3,80.4z"/>
</g>
</svg>
