<?xml version="1.0" encoding="utf-8"?>
<!-- Generator: Adobe Illustrator 22.1.0, SVG Export Plug-In . SVG Version: 6.00 Build 0)  -->
<svg version="1.1" id="Layer_1" xmlns="http://www.w3.org/2000/svg" xmlns:xlink="http://www.w3.org/1999/xlink" x="0px" y="0px"
	 viewBox="0 0 200 200" style="enable-background:new 0 0 200 200;" xml:space="preserve">
<style type="text/css">
	.st0{fill:#046D51;}
	.st1{fill:none;stroke:#046D51;stroke-width:10;stroke-miterlimit:10;}
	.st2{fill:#969696;}
	.st3{fill:none;stroke:#969696;stroke-width:9;stroke-miterlimit:10;}
</style>
<title>icon 1</title>
<path class="st0" d="M42.1,137.3c0,2.5-2,4.4-4.4,4.4H15c-2.5,0-4.4-2-4.4-4.4c0-2.5,2-4.4,4.4-4.4h22.6
	C40.1,132.8,42.1,134.9,42.1,137.3z"/>
<path class="st1" d="M83.4,61.2V28.8c-1.1-2.5-13.3-8.6-36.8-8.6s-35.7,6.1-36.8,8.6v32.4c0,21.8,15.4,40.5,36.8,44.8
	C68,101.8,83.4,83,83.4,61.2z"/>
<path class="st0" d="M37.6,148.8H27.5c-2.5,0-4.4,2-4.4,4.4s2,4.4,4.4,4.4h10.1c2.5,0,4.4-2,4.4-4.4S40.1,148.8,37.6,148.8z"/>
<path class="st2" d="M63.2,167.3c-3.6-1.1-6.5-3.5-8.1-6.7c-0.8-1.6-1.2-3.3-1.2-5V118c0-2.5,2-4.4,4.4-4.4s4.4,2,4.4,4.4v37.6
	c0,0.3,0.1,0.7,0.2,1c0.1,0.3,0.4,0.6,0.7,0.9l2.3,0.1l0.5,8.2l-0.5,1.5L63.2,167.3z"/>
<path class="st2" d="M101.3,168H130c2.5,0,4.4-2,4.4-4.4s-2-4.4-4.4-4.4h-28.7"/>
<path class="st2" d="M185.2,157.5c0.5-0.5,0.9-1.2,0.9-1.9c0-2.6,0-4.8,0-6.6v-2.9c0-3.6,0-8.4,0-10.7c0-1.6-0.1-3-0.2-4.1h-68.4
	c-1.6,0-5.3,0-16.7-11.3c-3.5-3.5-10.4-10.8-11.7-13.8c-0.9-2.3,0.1-4.9,2.4-5.8c2.2-0.9,4.8,0.1,5.8,2.3c0.6,1.1,4.2,5.5,9.5,10.7
	c6.6,6.6,10.1,8.7,11.1,9h63.1c-1.4-1.4-3.3-3-5.6-5.1c-1.2-1.1-2.6-2.3-4-3.6c-1.1-1-2.2-2-3.2-3c-1.5-1.4-3.1-2.9-4.7-4.3
	c-1.4-1.2-2.8-2.4-4.1-3.5c-16.5-13.9-20.9-17.6-34.8-17.6H93.8c-2.5,0-4.4-2-4.4-4.4c0-2.5,2-4.4,4.4-4.4h30.6
	c17.1,0,24,5.8,40.5,19.7c1.3,1.1,2.6,2.2,4,3.4c1.8,1.5,3.5,3.2,5.1,4.7c1,1,2,1.9,3,2.8c1.5,1.3,2.8,2.5,4,3.6
	c10.7,9.4,13.5,11.9,13.8,24.5c0.1,2.4,0.1,7.1,0.1,10.9v2.9c0,1.9,0,4,0,6.6c0,5.3-3.8,9.9-9.2,11.6"/>
<path class="st3" d="M83.1,147.5L83.1,147.5c-8.9,0-16,7.1-16,16s7.1,16,16,16s16-7.1,16-16S92,147.5,83.1,147.5z"/>
<path class="st2" d="M76.3,126.9c0,2.5,2,4.4,4.4,4.4h5c2.5,0,4.4-2,4.4-4.4s-2-4.4-4.4-4.4h-5C78.3,122.4,76.3,124.4,76.3,126.9z"
	/>
<g>
	<rect x="39.9" y="40.6" class="st2" width="12.8" height="36.6"/>
	<rect x="28" y="52.5" class="st2" width="36.6" height="12.8"/>
</g>
<circle class="st2" cx="83" cy="163.4" r="5.4"/>
<path class="st3" d="M166.1,147.5L166.1,147.5c-8.9,0-16,7.1-16,16s7.1,16,16,16s16-7.1,16-16S175,147.5,166.1,147.5z"/>
<circle class="st2" cx="166" cy="163.4" r="5.4"/>
</svg>
