<?xml version="1.0" encoding="utf-8"?>
<!-- Generator: Adobe Illustrator 22.1.0, SVG Export Plug-In . SVG Version: 6.00 Build 0)  -->
<svg version="1.1" id="Layer_1" xmlns="http://www.w3.org/2000/svg" xmlns:xlink="http://www.w3.org/1999/xlink" x="0px" y="0px"
	 viewBox="0 0 40 42.3" style="enable-background:new 0 0 40 42.3;" xml:space="preserve">
<style type="text/css">
	.st0{fill:#006C50;}
</style>
<g>
	<g>
		<g>
			<path class="st0" d="M27.5,17.9c0.1,0.3,0,0.6-0.3,0.7c-0.3,0.1-0.6,0-0.7-0.3c-0.2-0.4-0.3-0.7-0.6-1c-0.2-0.3-0.5-0.6-0.7-0.9
				l0,0c-0.3-0.3-0.6-0.5-0.9-0.7c-0.3-0.2-0.7-0.4-1-0.6C23,15,22.8,14.7,23,14.4c0.1-0.3,0.4-0.4,0.7-0.3c0.4,0.2,0.8,0.4,1.2,0.7
				c0.4,0.3,0.7,0.6,1.1,0.9l0,0l0,0c0.3,0.3,0.6,0.7,0.9,1.1C27.1,17.1,27.3,17.5,27.5,17.9z"/>
			<path class="st0" d="M31,18c0.1,0.3-0.1,0.6-0.4,0.7c-0.3,0.1-0.6-0.1-0.7-0.4c-0.2-0.8-0.5-1.5-0.9-2.2
				c-0.4-0.7-0.9-1.4-1.5-1.9c-0.6-0.6-1.2-1.1-1.9-1.5c-0.7-0.4-1.5-0.7-2.2-0.9c-0.3-0.1-0.5-0.4-0.4-0.7c0.1-0.3,0.4-0.5,0.7-0.4
				c0.9,0.2,1.7,0.6,2.5,1c0.8,0.5,1.5,1,2.2,1.7c0.6,0.6,1.2,1.4,1.7,2.2C30.4,16.3,30.8,17.1,31,18z"/>
			<path class="st0" d="M34.4,18c0.1,0.3-0.1,0.6-0.4,0.6c-0.3,0.1-0.6-0.1-0.6-0.4c-0.2-1.2-0.7-2.4-1.3-3.5l0,0
				c-0.6-1.1-1.3-2.1-2.2-3l0,0c-0.9-0.9-1.9-1.6-3-2.2c-1.1-0.6-2.3-1-3.5-1.3c-0.3-0.1-0.5-0.3-0.4-0.6c0.1-0.3,0.3-0.5,0.6-0.4
				c1.3,0.3,2.6,0.7,3.8,1.4c1.2,0.6,2.3,1.5,3.3,2.4l0,0c1,1,1.8,2,2.4,3.2l0,0C33.7,15.4,34.1,16.7,34.4,18z"/>
			<path class="st0" d="M37.3,33c0.2,0.2,0.3,0.5,0.1,0.8c-0.2,0.2-0.5,0.3-0.8,0.1L28,27.6l-0.6,0.6l-0.9,0.9
				c-2.1,2.1-5.3,1.6-8.2-0.2c-1.1-0.7-2.2-1.5-3.1-2.5c-1-1-1.8-2-2.5-3.1c-1.8-2.9-2.3-6.1-0.2-8.2l1.5-1.5L8.1,5.5L5.4,8.2l0,0
				l0,0c-2.1,2.1-2.7,4.9-1.6,8.3c1.1,3.5,4,7.7,8.6,12.4l0.2,0.2l0,0c0.3,0.3,0.6,0.6,0.8,0.8c4.5,4.4,8.5,7.1,11.9,8.1
				c3.3,1,6,0.5,8-1.6l0,0l0.1-0.1l0.7-0.7c0.2-0.2,0.6-0.2,0.8,0c0.2,0.2,0.2,0.6,0,0.8L34.2,37l0,0l-0.1,0.1l0,0
				c-2.3,2.3-5.4,3-9.1,1.8c-3.6-1.1-7.7-3.9-12.4-8.4c-0.3-0.3-0.6-0.6-0.8-0.8l0,0l0,0l-0.2-0.2c-4.8-4.8-7.7-9.1-8.9-12.8
				c-1.2-3.8-0.6-7,1.8-9.4l0,0l0,0l0,0l3.1-3.1c0,0,0,0,0.1-0.1C8,4,8.4,4.1,8.6,4.3l6.6,9c0.2,0.2,0.2,0.5,0,0.8l-1.8,1.8
				c-1.7,1.7-1.2,4.4,0.3,6.9c0.6,1,1.4,2,2.3,2.9c0.9,0.9,1.9,1.7,2.9,2.3c2.5,1.5,5.2,2,6.9,0.3l0.9-0.9l0.9-0.9l0,0
				c0.2-0.2,0.5-0.2,0.7-0.1L37.3,33z"/>
			<path class="st0" d="M34.9,35.4c0.2,0.2,0.3,0.5,0.1,0.8c-0.2,0.2-0.5,0.3-0.8,0.1L32,34.7L29.7,33l-2.3-1.7
				c-0.2-0.2-0.3-0.5-0.1-0.8c0.2-0.2,0.5-0.3,0.8-0.1l2.3,1.7l2.3,1.7L34.9,35.4z"/>
			<path class="st0" d="M5.3,7.4C5.1,7.1,5.1,6.8,5.4,6.6C5.6,6.4,6,6.5,6.2,6.7L7.8,9l1.7,2.3l1.7,2.3c0.2,0.2,0.1,0.6-0.1,0.8
				c-0.2,0.2-0.6,0.1-0.8-0.1l-1.6-2.3L6.9,9.6L5.3,7.4z"/>
		</g>
	</g>
</g>
</svg>
