<?xml version="1.0" encoding="utf-8"?>
<!-- Generator: Adobe Illustrator 22.1.0, SVG Export Plug-In . SVG Version: 6.00 Build 0)  -->
<svg version="1.1" id="Layer_1" xmlns="http://www.w3.org/2000/svg" xmlns:xlink="http://www.w3.org/1999/xlink" x="0px" y="0px"
	 viewBox="0 0 200 200" style="enable-background:new 0 0 200 200;" xml:space="preserve">
<style type="text/css">
	.st0{fill:#046D51;}
	.st1{fill:#969696;}
</style>
<title>icon 1</title>
<g>
	<g>
		<g>
			<g>
				<path class="st0" d="M113.6,163.7h-27c-1.8,0-3.1-1-3.1-2.4v-10.2c0-1.3,1.4-2.4,3.1-2.4h27c1.8,0,3.1,1,3.1,2.4v10.2
					C116.8,162.7,115.4,163.7,113.6,163.7z M89.8,158.9h20.7v-5.4H89.8V158.9z"/>
			</g>
			<path class="st1" d="M169.8,63.2V47.8c0-5.9-6.3-10.6-14-10.6h-12.1c-3.8-2.1-7.9-3.9-12.1-5.4v-9.1C131.4,13,121,4,108.1,4H92.2
				c-12.9,0-23.4,9-23.4,18.7v9c-4.3,1.5-8.4,3.3-12.1,5.4H44.6c-7.7,0-14,4.8-14,10.6v15.4c-3,6.1-4.6,12.6-4.6,19.5v98.1
				c0,9,9.6,16.2,21.3,16.2H153c11.8,0,21.3-7.3,21.3-16.2V82.7C174.3,75.8,172.7,69.3,169.8,63.2z M155.7,41.9
				c4.3,0,7.7,2.6,7.7,5.9v5.6c-3.4-4.2-7.6-8.1-12.3-11.4C151.2,41.9,155.7,41.9,155.7,41.9z M75.1,22.7c0-5.8,5.1-10.8,12.1-12.4
				c12.8-2.8,25.7,0,25.7,0c7.1,1.6,12.1,6.6,12.1,12.4v7.1c-2.6-0.7-5.3-1.3-8.1-1.8v-4.3c0-3.3-0.7-4.6-2-7.5
				c-17.7-6.2-30.3,0.8-30.3,0.8c-1.1,2.7-1.6,3.8-1.6,6.7v4.3c-2.8,0.5-5.4,1.1-8.1,1.8V22.7z M110.8,23.6v3.4
				c-3.5-0.4-7.1-0.6-10.6-0.6c-3.7,0-7.2,0.2-10.6,0.6l-0.1-3.4c0-1.5,0.1-1,0.4-2.3h20.5C110.6,22.7,110.8,22.1,110.8,23.6z
				 M36.8,47.8c0-3.2,3.5-5.9,7.7-5.9h4.5c-4.7,3.4-8.9,7.2-12.3,11.5V47.8z M157.3,161.2h10.9v19.6H168c0,6.3-6.7,11.4-15,11.4
				H47.3c-8.3,0-15-5.1-15-11.4v-19.6h10.9l-0.1-4.8H32.2V82.7c0-28.4,30.5-51.4,67.9-51.4c37.5,0,67.9,23.1,67.9,51.4v73.7h-10.9"
				/>
			<g>
				<path class="st1" d="M113.6,116h-27c-1.8,0-3.1-1-3.1-2.4v-10.2c0-1.3,1.4-2.4,3.1-2.4h27c1.8,0,3.1,1,3.1,2.4v10.2
					C116.8,115,115.4,116,113.6,116z M89.8,111.3h20.7v-5.4H89.8V111.3z"/>
			</g>
			<g>
				<path class="st1" d="M113.6,97h-27c-1.8,0-3.1-1-3.1-2.4V84.4c0-1.3,1.4-2.4,3.1-2.4h27c1.8,0,3.1,1,3.1,2.4v10.2
					C116.8,95.9,115.4,97,113.6,97z M89.8,92.2h20.7v-5.4H89.8V92.2z"/>
			</g>
			<g>
				<path class="st1" d="M113.6,77.9h-27c-1.8,0-3.1-1-3.1-2.4V65.4c0-1.3,1.4-2.4,3.1-2.4h27c1.8,0,3.1,1,3.1,2.4v10.2
					C116.8,76.8,115.4,77.9,113.6,77.9z M89.8,73.1h20.7v-5.4H89.8V73.1z"/>
			</g>
			<path class="st0" d="M136.7,57.3c11,7.6,17.9,18.5,17.9,30.6c0,1.3,1.4,2.4,3.1,2.4s3.1-1,3.1-2.4c0-25.4-27.3-46.1-60.8-46.1
				S39.3,62.5,39.3,87.9c0,1.3,1.4,2.4,3.1,2.4s3.1-1,3.1-2.4c0-22.8,24.5-41.3,54.5-41.3c11.2,0,21.7,2.6,30.3,7"/>
			<path class="st0" d="M157.2,156.4v-12.6h0.7c1.8,0,3.1-1,3.1-2.4v-15.4c0-1.3-1.4-2.4-3.1-2.4H42.4c-1.8,0-3.1,1-3.1,2.4v15.4
				c0,1.3,1.4,2.4,3.1,2.4h0.7v12.6l0.1,4.8v10.2c0,6.8,7.3,12.3,16.2,12.3H141c8.9,0,16.2-5.5,16.2-12.3v-10.2 M150.9,171.4
				c0,4.1-4.5,7.5-9.9,7.5H59.4c-5.5,0-9.9-3.4-9.9-7.5v-27.6h85.8v10c0,1.3,1.4,2.3,3.1,2.3c1.8,0,3.1-1,3.1-2.4v-10h9.4V171.4z
				 M154.7,139H45.6v-10.7h109.1V139z"/>
		</g>
	</g>
</g>
</svg>
