<?xml version="1.0" encoding="utf-8"?>
<!-- Generator: Adobe Illustrator 22.1.0, SVG Export Plug-In . SVG Version: 6.00 Build 0)  -->
<svg version="1.1" id="Layer_1" xmlns="http://www.w3.org/2000/svg" xmlns:xlink="http://www.w3.org/1999/xlink" x="0px" y="0px"
	 viewBox="0 0 200 200" style="enable-background:new 0 0 200 200;" xml:space="preserve">
<style type="text/css">
	.st0{fill:#969696;}
	.st1{fill:#046D51;}
</style>
<title>icon 1</title>
<title>Magazine 1</title>
<g>
	<path class="st0" d="M139.9,122.6l-11.4-11.4c18.3-26.4,15.7-62.9-7.8-86.4c-26.5-26.5-69.4-26.5-95.8,0
		c-26.5,26.5-26.5,69.4,0,95.8c23.5,23.5,60,26.1,86.4,7.8l11.4,11.4L139.9,122.6z M72.8,126.2c-13.7,0-27.4-5.2-37.9-15.7
		C14,89.6,14,55.6,34.9,34.7c20.9-20.9,54.9-20.9,75.8,0v0c20.9,20.9,20.9,54.9,0,75.8C100.2,120.9,86.5,126.2,72.8,126.2z"/>
</g>
<g>
	<path class="st1" d="M139.9,122.6l2.2-2.2c2.5-2.5,6.4-2.5,8.9,0l38.7,38.7l0,0c8.4,8.4,8.4,22,0,30.4c-8.4,8.4-22,8.4-30.5,0
		l-38.7-38.7c-2.5-2.5-2.5-6.4,0-8.9l2.2-2.2L139.9,122.6z"/>
</g>
</svg>
