<?xml version="1.0" encoding="utf-8"?>
<!-- Generator: Adobe Illustrator 22.1.0, SVG Export Plug-In . SVG Version: 6.00 Build 0)  -->
<svg version="1.1" id="Layer_1" xmlns="http://www.w3.org/2000/svg" xmlns:xlink="http://www.w3.org/1999/xlink" x="0px" y="0px"
	 viewBox="0 0 200 200" style="enable-background:new 0 0 200 200;" xml:space="preserve">
<style type="text/css">
	.st0{fill:#046D51;}
	.st1{fill:none;stroke:#969696;stroke-width:8;stroke-miterlimit:10;}
	.st2{fill:none;}
	.st3{fill:#969696;}
	.st4{fill:none;stroke:#006D51;stroke-width:9;stroke-miterlimit:10;}
</style>
<title>icon 1</title>
<g>
	<path class="st0" d="M113.1,23.5l6.6-9.3c0.6-0.9,1.6-1.4,2.7-1.4c1.1,0,2.1,0.5,2.7,1.4l6,8.4l9.8,3.1c1,0.3,1.8,1.1,2.2,2.2
		s0.2,2.1-0.5,3l-6.1,8.3l0.1,10.3c0,1.1-0.5,2.1-1.4,2.7c-0.6,0.4-1.3,0.6-2,0.6c-0.3,0-0.7,0-1-0.2l-5.9-2
		c-1.8-0.6-2.7-2.5-2.1-4.2s2.5-2.7,4.2-2.1l1.5,0.5l0-6.7c0-0.7,0.2-1.4,0.7-2l4-5.4l-6.4-2c-0.7-0.2-1.3-0.7-1.7-1.3l-3.9-5.5
		l-3.9,5.5c-1.1,1.5-3.2,1.8-4.7,0.8C112.4,27.1,112,25,113.1,23.5z"/>
	<path class="st0" d="M123.4,36.8c-0.3-1-1.1-1.8-2.2-2.2l-9.8-3.1l-6-8.4c-0.6-0.9-1.6-1.4-2.7-1.4c-1.1,0-2.1,0.5-2.7,1.4l-6,8.4
		l-9.8,3.1c-1,0.3-1.8,1.1-2.2,2.2c-0.3,1-0.1,2.1,0.5,3l6.1,8.3l-0.1,10.3c0,1.1,0.5,2.1,1.4,2.7c0.9,0.6,2,0.8,3,0.5l9.7-3.2
		l9.7,3.2c0.3,0.1,0.7,0.2,1,0.2c0.7,0,1.4-0.2,2-0.6c0.9-0.6,1.4-1.6,1.4-2.7l-0.1-10.3l6.1-8.3C123.5,38.9,123.7,37.8,123.4,36.8z
		 M110.7,54.2c-5-2.9-10.5-3.3-15.5-0.4c1.3-5.9-1.4-9.8-4.7-14.4c5.4,0,10.1-4,12.2-8.6c1.7,5.4,7.1,7.9,12.1,8.8
		C111.2,43.7,109.1,48.8,110.7,54.2z"/>
	<path class="st0" d="M98.5,17.4l4.3-4.3l4.2,4.3c0.7,0.7,1.5,1,2.4,1c0.8,0,1.7-0.3,2.3-1c1.3-1.3,1.3-3.4,0-4.7L105.1,6
		c-0.6-0.7-1.5-1-2.4-1c-0.9,0-1.8,0.4-2.4,1l-6.6,6.7c-1.3,1.3-1.3,3.4,0,4.7C95.1,18.7,97.2,18.7,98.5,17.4z"/>
	<path class="st1" d="M74.4,80.2c0,1.3-1.1,2.4-2.4,2.4H60.7c-1.3,0-2.4-1.1-2.4-2.4V64.7c0-1.3,1.1-2.4,2.4-2.4H72
		c1.3,0,2.4,1.1,2.4,2.4V80.2z"/>
	<path class="st1" d="M74.4,115.3c0,1.3-1.1,2.4-2.4,2.4H60.7c-1.3,0-2.4-1.1-2.4-2.4V99.8c0-1.3,1.1-2.4,2.4-2.4H72
		c1.3,0,2.4,1.1,2.4,2.4V115.3z"/>
	<path class="st1" d="M147.1,80.2c0,1.3-1.1,2.4-2.4,2.4h-11.3c-1.3,0-2.4-1.1-2.4-2.4V64.7c0-1.3,1.1-2.4,2.4-2.4h11.3
		c1.3,0,2.4,1.1,2.4,2.4V80.2z"/>
	<path class="st1" d="M147.1,115.3c0,1.3-1.1,2.4-2.4,2.4h-11.3c-1.3,0-2.4-1.1-2.4-2.4V99.8c0-1.3,1.1-2.4,2.4-2.4h11.3
		c1.3,0,2.4,1.1,2.4,2.4V115.3z"/>
	<path class="st1" d="M110.3,115.3c0,1.3-1.1,2.4-2.4,2.4H96.6c-1.3,0-2.4-1.1-2.4-2.4V99.8c0-1.3,1.1-2.4,2.4-2.4h11.3
		c1.3,0,2.4,1.1,2.4,2.4V115.3z"/>
	<path class="st1" d="M24.4,173.5V97.8c0-1.8,1.5-3.3,3.3-3.3h17.1"/>
	<path class="st1" d="M160.6,94.4h17.1c1.8,0,3.3,1.5,3.3,3.3v75.7"/>
	<path class="st1" d="M65.4,44.5H44.8v129h10.2v-28.2c0-5.1,4.2-9.3,9.3-9.3h0.5c5.1,0,9.3,4.2,9.3,9.3v28.2h9.3v-34.2
		c0-6.2,5.1-11.3,11.3-11.3h15.7c6.2,0,11.3,5.1,11.3,11.3v34.2h9.3v-28.2c0-5.1,4.2-9.3,9.3-9.3h0.5c5.1,0,9.3,4.2,9.3,9.3v28.2
		h10.2v-129h-19.8"/>
	<line class="st2" x1="150.4" y1="173.7" x2="160.6" y2="173.7"/>
	<line class="st2" x1="121.9" y1="173.7" x2="131.2" y2="173.7"/>
	<line class="st2" x1="74.3" y1="173.7" x2="83.5" y2="173.7"/>
	<line class="st2" x1="44.8" y1="173.7" x2="55.1" y2="173.7"/>
	<path class="st3" d="M114,71.3c0-1.8-1.5-3.3-3.3-3.3c-1.8,0-3.3,1.5-3.3,3.3v8.7h-9.2v-8.7c0-1.8-1.5-3.3-3.3-3.3
		c-1.8,0-3.3,1.5-3.3,3.3v12c0,1.8,1.5,3.3,3.3,3.3h15.8c1.8,0,3.3-1.5,3.3-3.3L114,71.3L114,71.3z"/>
	<path class="st0" d="M68.9,39.1l-0.1,10.3c0,1.1,0.5,2.1,1.4,2.7c0.6,0.4,1.3,0.6,2,0.6c0.3,0,0.7,0,1-0.2l5.9-2
		c1.8-0.6,2.7-2.5,2.1-4.2c-0.6-1.8-2.5-2.7-4.2-2.1l-1.5,0.5l0-6.7c0-0.7-0.2-1.4-0.7-2l-4-5.4l6.4-2c0.7-0.2,1.3-0.7,1.7-1.3
		l3.9-5.5l3.9,5.5c1.1,1.5,3.2,1.8,4.7,0.8c1.5-1.1,1.8-3.2,0.8-4.7l-6.6-9.2c-0.6-0.9-1.6-1.4-2.7-1.4c-1.1,0-2.1,0.5-2.7,1.4
		l-6,8.4l-9.8,3.1c-1,0.3-1.8,1.1-2.2,2.2s-0.2,2.1,0.5,3L68.9,39.1z"/>
	<path class="st4" d="M178.8,173.5h6.1c1.8,0,3.3,1.5,3.3,3.3v12.8c0,1.8-1.5,3.3-3.3,3.3H16.1c-1.8,0-3.3-1.5-3.3-3.3v-12.8
		c0-1.8,1.5-3.3,3.3-3.3h6.1H178.8z"/>
</g>
</svg>
