<?xml version="1.0" encoding="utf-8"?>
<!-- Generator: Adobe Illustrator 22.1.0, SVG Export Plug-In . SVG Version: 6.00 Build 0)  -->
<svg version="1.1" id="Layer_1" xmlns="http://www.w3.org/2000/svg" xmlns:xlink="http://www.w3.org/1999/xlink" x="0px" y="0px"
	 viewBox="0 0 200 200" style="enable-background:new 0 0 200 200;" xml:space="preserve">
<style type="text/css">
	.st0{fill:#046D51;}
	.st1{fill:#969696;}
</style>
<title>icon 1</title>
<title>Magazine 1</title>
<path class="st0" d="M175.2,19.1c1.5,0.3,2.8,1,3.9,1.9c1.7,1.5,2.8,3.5,3.1,5.7c0.4,2.2-0.2,4.2-1.2,6.1c-1,2-1.9,3.9-2.9,5.8
	c2.5,0.6,4.6,2.2,5.9,4.5c1.6,2.6,1.7,5.9,0.3,8.6c-0.6,1.4-1.3,2.8-2,4.2c0.2,0.1,0.3,0.2,0.5,0.3c3,1.5,4.4,4.1,5.1,7.2
	c0.5,2.2,0,4.2-1,6.1c-2,4-3.9,8-5.8,12c-1.3,2.8-2.7,5.6-4.1,8.3c-1.6,3.2-3.1,6.4-4.7,9.6c-1.5,3-2.9,6-4.4,9.1
	c-2.4,4.9-4.7,9.8-7.1,14.7c-1.8,3.8-3.7,7.5-5.5,11.3c-3.2,6.6-6.4,13.3-9.6,19.9c-1.8,3.7-3.6,7.5-5.5,11.2
	c-2.9,6.1-5.9,12.1-8.8,18.2c-1.3,2.7-2.6,5.5-4,8.1c-1.3,2.4-3.6,4.1-6.3,4.5c-2.3,0.5-4.5-0.1-6.6-1.1c-4.9-2.3-9.8-4.6-14.7-6.9
	c-5.8-2.7-11.6-5.4-17.3-8.1c-5.6-2.6-11.3-5.3-16.9-7.9c-5.1-2.4-10.1-4.7-15.2-7.1c-6.1-2.8-12.1-5.6-18.2-8.5
	c-4.9-2.3-9.8-4.5-14.6-6.9c-3.2-1.6-4.8-4.2-5-7.8c-0.2-2.3,0.8-4.3,1.7-6.3c1.7-3.4,3.3-6.8,5-10.2c2.2-4.6,4.5-9.2,6.7-13.8
	c2.8-5.8,5.6-11.7,8.4-17.5c1.9-4,3.9-8,5.8-12c2.5-5.2,5.1-10.5,7.6-15.7c2.5-5.1,4.9-10.1,7.4-15.2c1.6-3.3,3.2-6.7,4.8-10
	c2.5-5.1,5-10.1,7.4-15.2c1.8-3.6,3.5-7.3,5.3-10.9c1.7-3.8,5.6-6,9.7-5.6c1.3,0,2.6,0,3.8-0.1c0.8,0,1.6-0.1,2.5-0.2
	c2.6-0.2,5.2-0.3,7.7-0.5c3.1-0.2,6.2-0.6,9.3-0.8c1.9-0.1,3.8-0.2,5.7-0.3c2.4-0.2,4.8-0.4,7.2-0.6c0.8-0.1,1.7-0.1,2.6-0.2
	c2.7-0.2,5.4-0.3,8.1-0.5c2.1-0.1,4.2-0.3,6.3-0.5c2.3-0.2,4.5-0.3,6.8-0.5c2.8-0.2,5.7-0.4,8.5-0.6c2.2-0.2,4.4-0.3,6.6-0.5
	c2.9-0.2,5.8-0.4,8.7-0.6c1.5-0.1,3-0.4,4.4,0.2c3.4,1.2,5.2,3.7,5.9,7.2c0.5,2.5-0.3,4.7-1.4,6.9C175.5,18.6,175.4,18.8,175.2,19.1
	z M80.4,140.7L80.4,140.7c2.2-0.1,4.4-0.3,6.7-0.4c2.4-0.1,4.7-0.2,7.1-0.3c1,0,2-0.1,2.9-0.2c2.8-0.2,5.6-0.5,8.3-0.6
	c1.3,0,2.6-0.4,3.8-1c0.7-0.4,1.2-0.9,1.6-1.6c1.7-3.2,3.2-6.5,4.8-9.8c2.5-5.2,5-10.3,7.5-15.5c2.8-5.9,5.7-11.7,8.5-17.6
	c3.3-6.8,6.6-13.6,9.9-20.5c2.4-5,4.9-10,7.3-15c2.7-5.5,5.4-11,8-16.5c1.6-3.3,3.1-6.6,4.7-9.9c2.8-5.9,5.7-11.8,8.6-17.6
	c0.5-0.9,0.3-2-0.4-2.7c-0.4-0.3-0.8-0.6-1.3-0.6c-1.2,0-2.4,0.2-3.6,0.3c-1.8,0.1-3.6,0.2-5.3,0.3c-2.4,0.2-4.8,0.4-7.2,0.6
	c-2.2,0.2-4.4,0.3-6.6,0.5l-8.6,0.6c-2.3,0.2-4.5,0.3-6.8,0.5l-8.4,0.6l-9,0.6c-2.1,0.2-4.2,0.3-6.3,0.5c-3.3,0.2-6.6,0.4-9.9,0.6
	c-0.8,0.1-1.6,0.1-2.5,0.2c-2.5,0.2-5.1,0.4-7.6,0.6c-1.8,0.2-3.6,0.3-5.5,0.5c-0.9,0.1-1.6,0.6-2,1.4c-0.8,1.8-1.7,3.5-2.6,5.3
	c-2.6,5.4-5.3,10.8-7.9,16.3c-2.6,5.3-5.1,10.6-7.7,15.9c-2.7,5.6-5.4,11.1-8.1,16.7c-2.1,4.4-4.2,8.8-6.4,13.1
	c-1.8,3.8-3.7,7.6-5.6,11.4s-3.6,7.5-5.4,11.3c-2.2,4.6-4.5,9.1-6.7,13.7c-3,6.2-6,12.3-8.9,18.5c-0.2,0.5-0.3,1.1-0.3,1.7
	c0.1,1,1,1.7,2,1.6c0.9,0,1.8-0.1,2.6-0.2l7.9-0.5c2.6-0.2,5.2-0.3,7.8-0.5c2.4-0.1,4.7-0.2,7.1-0.3c0.9,0,1.9-0.1,2.8-0.2l7.3-0.5
	c1.1-0.1,2.2-0.1,3.3-0.2l9.8-0.6c1-0.1,2.1-0.1,3.1-0.2L80.4,140.7z M61.4,156.3v0.1c0,0,0.1,0.1,0.1,0.1l15.6,4.8l21.2,6.4
	c2.9,0.9,5.8,1.7,8.7,2.6c2.9,0.9,5.8,1.8,8.7,2.7c1.2,0.4,2.5-0.1,3.1-1.2c1.6-3.2,3.2-6.4,4.7-9.7c1.3-2.6,2.5-5.3,3.8-8
	c1.8-3.6,3.5-7.3,5.3-10.9c2-4,3.9-8.1,5.9-12.1c1.4-2.9,2.8-5.8,4.2-8.7c1.6-3.4,3.2-6.7,4.8-10.1c1.5-3,3-6.1,4.4-9.1
	c1.9-3.9,3.8-7.8,5.7-11.7c1.5-3.1,3-6.1,4.5-9.2c1.5-3.1,3-6.2,4.5-9.4c1.5-3.1,3.1-6.3,4.6-9.5s3.1-6.5,4.7-9.7
	c0.8-1.7,1.7-3.3,2.4-5c0.5-1.2,0-2.7-1.3-3.2c-0.1,0-0.2-0.1-0.2-0.1c-0.6-0.2-1.1-0.3-1.7-0.5c-0.1,0.2-0.2,0.4-0.3,0.6
	c-2.2,4.5-4.5,9.1-6.7,13.6c-2.8,5.7-5.7,11.5-8.5,17.2c-1.7,3.4-3.4,6.8-5,10.2c-1.5,3-2.9,6.1-4.4,9.1c-1.5,3.2-3.1,6.3-4.7,9.5
	c-3.2,6.6-6.5,13.2-9.7,19.8c-1.2,2.5-2.5,4.9-3.7,7.4c-1.6,3.2-3.1,6.4-4.7,9.7c-2.3,4.7-4.6,9.3-6.9,14c-0.9,1.8-1.8,3.7-3.5,4.9
	c-2.1,1.6-4.8,2.2-7.4,1.8c-1.2-0.2-2.4-0.4-3.6-0.5c-1.7-0.2-3.4-0.4-5.1-0.7c-1.8-0.2-3.7-0.5-5.5-0.7l-4.4-0.6l-4.1-0.5l-4.4-0.6
	l-4-0.5l-4.4-0.6l-4-0.5l-4.4-0.6C64.3,156.6,62.9,156.4,61.4,156.3L61.4,156.3z M57.3,148.8L57.3,148.8l2.3,0.4
	c1.8,0.2,3.5,0.5,5.3,0.7c1.5,0.2,2.9,0.3,4.4,0.5c2.2,0.3,4.4,0.6,6.6,0.9c1.8,0.2,3.5,0.4,5.3,0.7c1.9,0.2,3.8,0.5,5.7,0.8
	c1.4,0.2,2.8,0.3,4.1,0.5c1.8,0.2,3.6,0.5,5.4,0.7c1.4,0.2,2.9,0.3,4.3,0.5c1.8,0.2,3.6,0.5,5.3,0.7c1.6,0.2,3.3,0.5,4.9,0.8
	c1.2,0.2,2.4-0.3,3-1.3c1.3-2.6,2.5-5.2,3.8-7.8c2.7-5.4,5.4-10.9,8-16.3c2.3-4.8,4.7-9.5,7-14.3c1.6-3.2,3.1-6.4,4.7-9.6
	c2.5-5,4.9-10,7.4-15c2.2-4.6,4.5-9.1,6.7-13.7c2.6-5.3,5.2-10.7,7.9-16l10-20.3l6.1-12.3c0.5-1.1,0.2-2.3-0.6-3.1
	c-0.6-0.6-1.4-0.3-2-0.5c-0.7-0.2-0.8,0.1-1,0.5c-1,2.1-2,4.1-3,6.1c-2.3,4.8-4.7,9.6-7,14.5c-1.9,3.9-3.7,7.8-5.6,11.6
	c-3,6.3-6.1,12.6-9.1,18.9c-2.2,4.6-4.5,9.1-6.7,13.7c-2.8,5.8-5.6,11.6-8.4,17.4c-2.9,6-5.8,11.9-8.7,17.9
	c-2.1,4.4-4.2,8.7-6.3,13.1c-1.2,2.6-3.3,4.2-5.9,5.3s-5.4,1.2-8.1,1.4s-5.3,0.3-8,0.5l-7.6,0.5l-8.3,0.5c-2.5,0.2-4.9,0.3-7.4,0.5
	c-2.8,0.2-5.6,0.3-8.5,0.5L57.3,148.8z M64.9,164.5l-0.1,0.2c0.4,0.2,0.7,0.4,1.1,0.5l15.7,7.3c4.1,1.9,8.2,3.8,12.3,5.8l14.3,6.7
	l10.3,4.8c0.9,0.6,2.1,0.4,2.9-0.4c0.5-0.5,0.8-1.1,1.1-1.8c2.7-5.5,5.4-11,8-16.5c2.3-4.8,4.6-9.5,6.9-14.3
	c3.1-6.4,6.3-12.8,9.4-19.2c2.6-5.4,5.2-10.9,7.8-16.4c2.3-4.7,4.6-9.5,6.9-14.2c2.6-5.3,5.1-10.5,7.7-15.8c2.2-4.7,4.5-9.3,6.7-14
	c1.8-3.7,3.6-7.4,5.4-11.2c0.6-1.3-0.4-3.5-1.8-3.9c-0.1,0.2-0.2,0.4-0.3,0.6c-2.4,5-4.9,9.9-7.3,14.9c-1.6,3.3-3.1,6.6-4.7,9.9
	c-2.5,5.2-5.1,10.3-7.6,15.5c-2.4,4.9-4.7,9.7-7.1,14.6c-2.4,4.9-4.7,9.6-7,14.4c-1.6,3.4-3.2,6.7-4.8,10.1
	c-2.5,5.1-5,10.2-7.5,15.3c-2.8,5.7-5.5,11.5-8.4,17.2c-2,4-6.6,6-10.8,4.7c-4.1-1.2-8.1-2.5-12.2-3.7c-5.4-1.6-10.8-3.3-16.2-4.9
	L70,166.1C68.3,165.6,66.6,165.1,64.9,164.5z"/>
<path class="st1" d="M78.7,132.1l-9.5,0.5c0.9-1.8,1.9-3.6,2.8-5.4c2.2-4.7,4.4-9.4,6.6-14c1.8-3.9,3.7-7.8,5.5-11.7
	c2.2-4.7,4.4-9.3,6.5-14c0.6-1.3,1.2-2.6,1.7-4c0.5-1.6-0.1-2.9-1.4-3.9c-0.8-0.6-1.6-1.4-2.4-2c-0.3-0.2-0.4-0.6-0.2-0.8
	c0,0,0,0,0,0c1.9-3.9,3.7-7.7,5.5-11.6c0.8-1.8,1.7-3.5,2.5-5.3c0.6-1.4,2-2.4,3.5-2.4c3-0.1,5.9-0.2,8.9-0.3
	c3.7-0.1,7.4-0.3,11.1-0.5c3.2-0.1,6.5-0.3,9.7-0.5c1.3-0.1,1.7,0.6,1.2,1.9c-0.8,1.7-1.6,3.4-2.3,5c-1.5,3.2-3,6.4-4.6,9.6
	c-0.4,0.8-0.7,1.5-1.1,2.3c-0.2,0.3-0.5,0.5-0.8,0.5c-1.7,0.1-3.4,0.1-5.1,0.2c-2.2,0.1-4.5,0.1-6.7,0.3c-2,0.2-3.7,1.3-5.3,2.5
	c-2,1.6-3.2,3.8-4.3,6.1c-1.6,3.5-3.3,6.9-4.9,10.3c-1.9,4-3.8,8.1-5.7,12.1c-1.2,2.5-2.4,5-3.6,7.6c-1.8,3.9-3.7,7.7-5.5,11.6
	c-0.7,1.6-1.4,3.1-2.1,4.7C78.9,131.3,78.8,131.7,78.7,132.1z"/>
<path class="st1" d="M62,133.1c-3.2,0.1-6,0.2-8.8,0.3c-2.1,0.1-4.2,0.2-6.4,0.3c-2.8,0.1-5.6,0.3-8.4,0.5c-1.7,0.1-2.6-0.8-2-2.4
	c0.6-1.7,1.5-3.3,2.2-5c2.8-5.9,5.6-11.9,8.4-17.8c2.1-4.5,4.3-9,6.4-13.5c1.3-2.8,2.7-5.6,4-8.5c0.6-1.3,1.6-2.3,2.9-2.9
	c2.5-1.3,5-2.6,7.5-4c1-0.6,2.2-0.9,3.4-0.9c3,0,6.1-0.3,9.1-0.4c1-0.1,1.9-0.1,2.9,0c0.4,0.1,0.8,0.3,1,0.6
	c1.3,1.1,2.6,2.2,3.9,3.4c1,0.9,1.2,1.4,0.6,2.6c-2.7,5.6-5.3,11.3-8,16.9L74,116.6c-2,4.2-4,8.5-6,12.7
	C66.7,132,64.6,133.3,62,133.1z M61.5,92.4L61.5,92.4c-0.4,0-0.8,0-1.2,0c-0.9-0.1-1.7,0.4-2,1.2c-0.7,1.5-1.4,3-2.1,4.5
	c-2.1,4.6-4.3,9.1-6.5,13.7c-1.3,2.8-2.7,5.6-4,8.4c-0.3,0.7-0.2,1,0.6,1c1,0,2-0.1,2.9-0.2l6.6-0.3c3.7-0.2,7.4-0.3,11.1-0.5
	c0.8,0.1,1.6-0.4,1.8-1.2c0.6-1.3,1.2-2.6,1.8-3.8c1.8-3.7,3.5-7.5,5.3-11.2c1.2-2.6,2.5-5.2,3.7-7.8c0.6-1.3,1.2-2.5,1.7-3.8
	c0.3-0.7,0.1-1-0.7-0.9c-1.5,0.1-3,0.2-4.5,0.3c-2,0.1-4,0.2-6,0.3C67.4,92.1,64.4,92.2,61.5,92.4z"/>
<path class="st1" d="M94.1,131.7l-8.8,0.3c-0.7,0.1-1.3,0.1-2,0c-0.7-0.1-1.1-0.8-1-1.4c0-0.1,0-0.1,0.1-0.2c0.6-1.5,1.2-3,1.9-4.4
	c2.5-5.3,4.9-10.5,7.4-15.8c2.7-5.7,5.4-11.4,8.1-17c1.6-3.4,3.2-6.9,4.9-10.3c0.9-2.1,3-3.4,5.3-3.4c3.1-0.1,6.2-0.2,9.3-0.3
	c1.7-0.1,3.4-0.2,5.1-0.3c1.1-0.1,2.2,0.6,1.7,2.1c-0.6,1.6-1.2,3.1-2,4.6c-3.2,6.9-6.4,13.7-9.7,20.6c-1.7,3.7-3.5,7.4-5.3,11.1
	c-1.8,3.7-3.5,7.5-5.3,11.2c-0.9,1.8-2.3,2.9-4.4,3C97.6,131.4,95.8,131.6,94.1,131.7L94.1,131.7z M96.8,124.9
	c0,1.2,0.7,1.9,1.7,1.7c2.3-0.4,4.1-2.1,4.8-4.3c0.4-1.5-0.6-2.6-2.1-2.2c-1.3,0.3-2.5,1.1-3.3,2.1C97.4,123,96.8,123.8,96.8,124.9z
	 M98.5,108.9c0.1,0,0.3,0,0.4-0.1c2.1-0.5,3.8-2.2,4.4-4.3c0.3-0.8-0.1-1.8-1-2.1c-0.3-0.1-0.6-0.1-1,0c-2.3,0.5-4.1,2.2-4.6,4.4
	C96.4,108,97.2,108.9,98.5,108.9L98.5,108.9z M115.6,90.3c0.2,0,0.5,0,0.7,0c0.2,0,0.3-0.1,0.4-0.2c1.8-0.7,3.2-2.3,3.8-4.2
	c0.3-0.8-0.2-1.7-1-2c-0.2-0.1-0.4-0.1-0.5-0.1c-2,0-4.5,2.2-4.9,4.2C113.7,89.6,114.2,90.3,115.6,90.3L115.6,90.3z M105.4,106.3
	c0,1.6,0.3,2,1.5,2.1c2.2,0.2,5.1-2.7,5.1-4.9c0-0.6-0.4-1.2-1-1.4c-0.9-0.2-1.8-0.1-2.6,0.5C106.8,103.5,105.7,104.8,105.4,106.3z
	 M93.1,120.6c-1.7-0.3-4.6,2.2-4.9,4.2c-0.2,1.5,0.6,2.5,2,2.2c2.2-0.5,3.8-2.2,4.4-4.4C94.9,121.3,94.4,120.6,93.1,120.6
	L93.1,120.6z M111.8,85.7c0-0.8-0.7-1.5-1.5-1.4c-0.1,0-0.3,0-0.4,0.1c-2.2,0.5-4,2.1-4.6,4.4c-0.4,1.4,0.7,2.4,2.1,2.1
	c1.1-0.2,2.1-0.8,2.9-1.6C111.2,88.2,111.8,87,111.8,85.7z M107.6,95.5c0-1.5-0.9-2.3-1.9-2.1c-2.1,0.4-3.8,1.9-4.5,4
	c-0.3,0.7-0.4,1.4,0.2,1.9c0.5,0.4,1.1,0.6,1.7,0.6c1.5-0.3,2.9-1.2,3.7-2.5C107.1,96.7,107.3,96.1,107.6,95.5L107.6,95.5z
	 M92.4,116.7c-0.1,0.7,0.9,1.4,2,1.3c1.9-0.2,4.3-2.5,4.6-4.4c0.2-1.3-0.3-2.3-1.9-2c-0.8,0.2-1.7,0.5-2.4,1
	C93.3,113.5,92.5,115,92.4,116.7L92.4,116.7z M111.3,99.4c1.8,0.1,4.4-2.2,4.8-4.2c0.3-1.4-0.4-2.3-1.7-2.2
	c-2.2,0.2-4.5,2.4-4.8,4.6C109.5,98.7,110.2,99.4,111.3,99.4L111.3,99.4z M106,111.1c-2.1,0-4.9,2.7-4.9,4.8
	c-0.1,0.9,0.6,1.6,1.4,1.7c0.1,0,0.2,0,0.3,0c2.1,0,4.8-2.6,4.9-4.7C107.7,111.7,107.1,111.1,106,111.1L106,111.1z"/>
<path class="st1" d="M103.6,32.5c-0.7,0.8-1.4,1.7-2.1,2.5c-1.1,1.4-2.2,2.9-3.4,4.2c-0.9,1-2.2,1-3.4,1c-0.7,0-0.9-0.6-0.8-1.4
	c0.3-2,0.6-4,0.8-6l-0.4,0.7c-1.7,3.6-3.5,7.3-5.1,10.9c-0.6,1.4-1.8,1.5-3,1.6c-0.4,0-0.9,0-1.3,0c-0.9,0-1.2-0.4-0.8-1.2
	c1.1-2.4,2.3-4.9,3.5-7.3c1.7-3.5,3.4-7.1,5.1-10.6c0.2-0.4,0.4-0.8,0.6-1.2c0.3-0.8,1.1-1.4,1.9-1.5c1.2-0.1,2.4-0.1,3.6-0.2
	c0.5,0,0.7,0.3,0.7,0.8c-0.1,1.6-0.2,3.1-0.4,4.7c-0.1,1.2-0.2,2.4-0.2,3.7c0.8-1,1.7-2,2.5-3c1.6-1.8,3.1-3.6,4.6-5.5
	c1-1.3,2.4-1.6,3.9-1.7c0.4,0,0.9,0,1.3,0c1,0,1.4,0.5,0.9,1.4c-0.6,1.4-1.3,2.8-2,4.2c-2,4.2-4,8.4-6,12.5c-0.3,0.7-0.7,1.4-1,2.1
	c-0.3,0.9-1.2,1.6-2.2,1.6c-0.8,0-1.7,0.1-2.5,0.1c-0.6,0-0.7-0.4-0.5-0.9c0.7-1.4,1.4-2.9,2.1-4.3c1.2-2.4,2.4-4.9,3.6-7.3
	L103.6,32.5z"/>
<path class="st1" d="M117.9,39l-2.9,0.2c-0.2,0-0.4,0.1-0.6,0.1c-1.3-0.3-2,0.4-2.6,1.5c-0.4,0.7-1,1.3-1.3,2c-0.7,1.5-2,1.9-3.5,2
	c-0.6,0-1.1,0-1.7,0c-0.5-0.1-0.9-0.3-0.5-0.9c0.8-1.2,1.5-2.5,2.4-3.7c2-2.9,3.9-5.7,5.9-8.6c1.6-2.3,3.2-4.5,4.8-6.8
	c0.9-1.4,2.4-2.2,4-2.2c1.3,0,2.7-0.2,4-0.1c1.1,0,1.5,0.7,1.2,1.7c-1.2,4.7-2.5,9.5-3.8,14.2c-0.3,1.1-0.5,2.2-0.9,3.4
	c-0.6,1.7-1.2,2.1-3,2.2c-0.6,0-1.1,0-1.7,0c-0.8,0-1.1-0.4-0.9-1.2c0.3-1.1,0.7-2.2,1-3.4C117.8,39.4,117.9,39.2,117.9,39z
	 M121.5,27l-0.2-0.2c-1.9,2.8-3.8,5.6-5.8,8.5l3.6-0.2L121.5,27z"/>
<path class="st1" d="M68.8,78.2c0.7-1.1,0.7-2.3,1.8-2.8c0.1-0.1,0.2-0.2,0.2-0.4c1.5-3.1,2.9-6.2,4.4-9.3c0.7-1.7,2.4-2.8,4.2-2.7
	c3.4-0.1,6.7-0.3,10.1-0.4c1.2,0,1.9,0.5,1.4,1.8c-0.6,1.5-1.3,3-2,4.5c-0.9,1.8-1.7,3.7-2.6,5.5c-0.1,0.2,0,0.4,0,0.6
	c0,0.2,0,0.4-0.1,0.6c-0.1,0.3-0.3,0.6-0.4,0.9c-0.3,0.9-0.9,1.1-1.8,1.1c-3.5,0.1-7.1,0.3-10.6,0.4C71.9,78.1,70.4,78.2,68.8,78.2z
	"/>
<path class="st1" d="M136.7,35c-0.5,0-0.9,0-1.2,0c-0.6,0.1-0.8-0.4-0.6-0.8c0.4-1,1-2,1.5-3c0.5-0.8,1.4-0.6,2.1-0.7
	c1.1-0.1,2.3-0.2,3.4-0.2c1,0,1.1,0.3,0.7,1.2c-1.1,2.2-2.2,4.5-3.2,6.7c-1.1,2.3-3.1,4-5.5,4.7c-1.9,0.6-4,0.8-6,0.6
	c-1.5,0-2.7-1.1-2.8-2.6c0-0.3,0-0.7,0.2-1c0.4-1.6,1-3.1,1.6-4.6c1.4-2.8,2.8-5.6,4.4-8.2c1.3-2.3,3.3-4.1,5.8-5.1
	c1-0.4,2.1-0.6,3.2-0.7c1.8,0,3.6,0.1,5.4,0.3c0.2,0,0.6,0.5,0.5,0.6c-0.4,1.1-1,2.2-1.5,3.2c-0.5,0.9-1.4,0.8-2.3,0.7
	c-1.6-0.3-3.2-0.2-4.7,0.3c-1.3,0.6-2.3,1.6-2.9,2.9c-1.2,2.3-2.3,4.6-3.4,7c-0.3,0.7-0.8,1.7-0.2,2.3c0.5,0.4,1.6,0.3,2.3,0.2
	c0.7-0.2,1.3-0.7,1.8-1.3C136,36.5,136.4,35.8,136.7,35z"/>
</svg>
