<?xml version="1.0" encoding="UTF-8"?>
<svg width="70px" height="14px" viewBox="0 0 70 14" version="1.1" xmlns="http://www.w3.org/2000/svg" xmlns:xlink="http://www.w3.org/1999/xlink">
    <title>logotype</title>
    <defs>
        <path d="M137.506977,22 C137.500785,22.0709455 137.48934,22.1417067 137.48934,22.2126523 C137.488589,25.0694529 137.487088,27.9262535 137.489903,30.7830542 C137.490278,31.3611219 137.561204,31.9305287 137.792932,32.4687932 C138.186214,33.3824239 138.863761,33.9393001 139.89575,33.9606759 C140.930741,33.982236 141.627991,33.4531852 142.047541,32.546004 C142.302912,31.9933661 142.414929,31.4059005 142.443074,30.8049828 C142.477787,30.0680708 142.465966,29.3320803 142.257879,28.6139643 C141.81844,27.0962832 140.211539,26.3794571 138.750805,27.051136 C138.636536,27.1036542 138.531273,27.1753368 138.404057,27.248125 C138.399179,27.1876831 138.392049,27.1377449 138.391861,27.0876223 C138.390923,26.7402657 138.400117,26.3927249 138.38717,26.0457368 C138.381541,25.8957377 138.43558,25.7932814 138.566173,25.7490556 C138.869578,25.6465992 139.172608,25.5225828 139.486332,25.474303 C140.685691,25.2898447 141.780162,25.5338235 142.702573,26.3420495 C143.399634,26.952918 143.806801,27.7381097 143.996875,28.6242836 C144.351691,30.2785118 144.187886,31.8802219 143.360419,33.3780014 C142.374213,35.1632484 140.477792,35.5382461 139.059652,35.1888625 C138.338948,35.011038 137.816199,34.5545912 137.397399,33.9693368 C137.354993,33.9101848 137.292887,33.8644849 137.239974,33.8125196 C137.222899,33.8230232 137.206012,33.8333425 137.189125,33.8438462 L137.189125,35.0650303 L135.64677,35.0650303 L135.64677,34.7742459 C135.64677,30.593989 135.64677,26.4135478 135.646395,22.233291 C135.646395,22.1555273 135.642642,22.0775794 135.640578,22 L137.506977,22 Z M117.534988,22 C117.537052,22.0775794 117.540805,22.155343 117.540805,22.2331067 C117.540993,25.1075976 117.536677,27.9820886 117.544183,30.8563952 C117.546059,31.5951499 117.674776,32.3132659 118.100143,32.9455102 C119.05539,34.3662631 121.108672,34.2956861 121.962409,32.8148599 C122.357567,32.1297289 122.483282,31.3764166 122.5088,30.6044926 C122.531691,29.9151234 122.500169,29.228334 122.295085,28.5601563 C121.908933,27.3017488 120.9732,26.7780419 119.723556,26.8397737 C119.271732,26.8618866 118.848241,26.9720825 118.449894,27.2650782 L118.449894,26.1679105 C118.449894,25.8094975 118.450832,25.7925443 118.800582,25.6607883 C119.537798,25.3830873 120.298467,25.3408886 121.066079,25.5026812 C122.365635,25.7763282 123.274724,26.5504634 123.750752,27.7417952 C124.553827,29.7509352 124.393587,31.7315127 123.277726,33.5878895 C122.29865,35.2170564 120.438818,35.5188973 119.114682,35.1868355 C118.394166,35.0060626 117.87198,34.5503529 117.452054,33.9662041 C117.408898,33.9061308 117.345853,33.859878 117.292002,33.8073599 C117.275865,33.8171264 117.259541,33.8272615 117.243217,33.8372123 L117.243217,35.0650303 L115.705178,35.0650303 L115.705178,22 L117.534988,22 Z M147.473552,35.3333333 C147.291734,35.2913188 147.10804,35.2563068 146.928661,35.2061842 C145.604901,34.8356091 144.750414,33.7305176 144.970885,32.1558958 C145.153077,30.8547368 145.96272,30.0310318 147.322131,29.7724953 C148.044335,29.6352111 148.781363,29.5714523 149.511824,29.4754455 C149.649923,29.4575709 149.788584,29.4444874 149.942257,29.4275342 L149.942257,30.6964454 C149.49944,30.7561501 149.052682,30.8033243 148.610991,30.8803509 C148.258801,30.9417141 147.901733,31.0084213 147.566806,31.1274624 C146.776302,31.4081117 146.464454,31.9686734 146.606493,32.7776365 C146.732584,33.4963053 147.150445,33.9133175 147.914868,33.9901598 C148.998268,34.0994343 149.97134,33.8250502 150.758279,33.0520206 C151.108029,32.7083495 151.28797,32.2878361 151.28722,31.7923231 C151.285531,30.6785708 151.274461,29.5642656 151.303169,28.451066 C151.330751,27.3848564 150.748334,26.9943796 149.987664,26.8384838 C149.439397,26.7262609 148.886063,26.7102291 148.336107,26.8268745 C147.542226,26.9949325 147.077455,27.5044502 146.926222,28.3543221 C146.912525,28.4304273 146.897514,28.506164 146.880815,28.5946155 C146.428053,28.5946155 145.983735,28.5947998 145.539229,28.5940627 C145.497574,28.5940627 145.455919,28.5865075 145.415203,28.5826377 C145.400567,27.3776697 145.94602,26.343708 147.037865,25.849485 C147.622721,25.5846831 148.243791,25.4794627 148.88156,25.4470304 C149.750119,25.4029889 150.59954,25.4829639 151.400363,25.8426668 C152.353171,26.2707354 152.847024,26.9980651 152.846837,28.0360809 C152.846649,29.7911069 152.846649,31.5459487 152.846837,33.3007905 C152.847024,33.8254188 153.060552,34.018538 153.591182,33.9704424 C153.741853,33.9568062 153.891773,33.9348775 154.055014,33.9151602 L154.055014,35.0593178 C153.481979,35.2741814 152.896935,35.3134317 152.306262,35.1387399 C151.72666,34.9673651 151.465848,34.5420606 151.392295,33.9798404 C151.387792,33.9444598 151.382351,33.9092635 151.376346,33.8742514 C151.375783,33.8707502 151.367152,33.8685389 151.31893,33.8421877 C151.216107,33.955332 151.112345,34.0876407 150.990382,34.2009693 C150.308144,34.8354248 149.496813,35.1993661 148.562957,35.3018225 C148.52862,35.3056922 148.495408,35.3224612 148.461634,35.3333333 L147.473552,35.3333333 Z M98,32.1706378 C98.0499107,31.9754916 98.0880005,31.7764756 98.1519838,31.5859362 C98.4846596,30.5921462 99.227504,30.0325059 100.226282,29.8099029 C100.889006,29.6621151 101.573121,29.6062801 102.24823,29.5124846 C102.48296,29.4798681 102.719192,29.4564653 102.969496,29.4271657 L102.969496,30.7052905 C102.73439,30.7377227 102.489527,30.7675751 102.246353,30.8057199 C101.795843,30.8764811 101.338015,30.9219968 100.898951,31.0362467 C100.612246,31.1106934 100.327041,31.252953 100.087432,31.4263549 C99.6237877,31.7621022 99.5808195,32.2638804 99.6641291,32.7756095 C99.7810253,33.492067 100.176559,33.8934159 100.932725,33.9837102 C102.007119,34.1121492 102.976438,33.8416349 103.775198,33.0945879 C104.164539,32.7302781 104.35086,32.2762268 104.350485,31.7440433 C104.349547,30.6483498 104.358553,29.5526563 104.360805,28.4567785 C104.362681,27.4976321 104.003174,27.0487405 103.05243,26.8421693 C102.511293,26.7246024 101.964339,26.7128089 101.419261,26.8218991 C100.607555,26.9844288 100.128712,27.5064772 99.978792,28.3830689 C99.9677215,28.447012 99.9553377,28.5109551 99.9422033,28.5835591 L98.480344,28.5835591 C98.4441305,27.5820296 98.8813186,26.4874417 99.8990474,25.9464131 C100.529686,25.6112186 101.212113,25.4853594 101.918556,25.4479518 C102.787303,25.4018833 103.636349,25.4814897 104.437923,25.840087 C105.400112,26.2705512 105.887586,27.0058046 105.88646,28.0497171 C105.884583,29.8045589 105.885897,31.5592165 105.885897,33.313874 C105.886084,33.8221018 106.105429,34.0176166 106.62649,33.9709953 C106.77716,33.9575433 106.927268,33.9357989 107.104957,33.9146074 C107.104957,34.2853668 107.107021,34.6421214 107.100829,34.9986917 C107.100454,35.0290969 107.050543,35.0736912 107.014142,35.0865904 C106.47019,35.2789725 105.917044,35.3029281 105.362772,35.1407669 C104.866104,34.9953747 104.580712,34.6550205 104.479014,34.1609818 C104.459688,34.0673706 104.447304,33.9724695 104.427978,33.8556397 C104.385385,33.8877034 104.346545,33.9100006 104.317274,33.9407743 C103.568425,34.7281773 102.66065,35.2050786 101.559987,35.3080878 C101.543663,35.3097463 101.528652,35.3246725 101.51289,35.3333333 L100.524996,35.3333333 C100.480151,35.3206184 100.436245,35.3038495 100.390649,35.2955572 C99.2376362,35.0888017 98.4178617,34.5007832 98.085186,33.3547828 C98.054414,33.2482724 98.0283328,33.1404721 98,33.0332246 L98,32.1706378 Z M127.744737,35.3069821 C127.510382,35.248383 127.271711,35.2034201 127.042609,35.1291577 C125.832555,34.7379439 125.12067,33.6674959 125.206044,32.4190392 C125.277345,31.3721783 125.721476,30.5622938 126.683289,30.0625426 C127.102464,29.844915 127.555414,29.7255054 128.023562,29.6656163 C128.694167,29.5795603 129.365522,29.5010596 130.036878,29.4201633 C130.102738,29.4122395 130.169348,29.410581 130.250031,29.4050528 L130.250031,30.6699099 C129.801397,30.7296147 129.348072,30.7758675 128.900565,30.8539997 C128.536366,30.9173899 128.166914,30.9861242 127.821104,31.1103249 C127.061748,31.3828662 126.765661,31.9073102 126.872049,32.7024527 C126.970557,33.4389961 127.419004,33.8886248 128.190368,33.9671255 C129.164378,34.0662649 130.055642,33.8359224 130.819876,33.2182358 C131.306225,32.8249949 131.562721,32.3232167 131.55484,31.6854442 C131.54133,30.5897507 131.533637,29.4931358 131.562908,28.3979951 C131.589365,27.4097334 131.044287,26.974478 130.258287,26.8141596 C129.715648,26.7034109 129.169632,26.6879319 128.624367,26.794258 C127.83649,26.9477583 127.354082,27.4543277 127.196845,28.2839295 C127.180333,28.3718282 127.16307,28.4593584 127.144307,28.5572079 L125.664435,28.5572079 C125.663872,28.188844 125.721663,27.8331951 125.826926,27.4843643 C126.076855,26.6562368 126.604858,26.0549505 127.427072,25.7588221 C128.772786,25.2743656 130.138013,25.2511471 131.479599,25.7761439 C132.50746,26.1785984 133.006942,26.9584462 133.007881,28.0434518 C133.009382,29.7922126 133.008256,31.5409733 133.008256,33.2899184 C133.008256,33.7463652 133.263626,33.9846315 133.729898,33.9545949 C133.936108,33.9415114 134.14138,33.9131332 134.3611,33.890099 L134.3611,35.0346251 C133.90815,35.1982605 133.448634,35.2513314 132.973731,35.1975234 C132.168592,35.1061234 131.766867,34.6992463 131.646406,33.8158365 C131.588427,33.8687232 131.540768,33.9077893 131.49855,33.9514622 C130.760959,34.7145411 129.868383,35.171725 128.796803,35.2791568 C128.774662,35.2813681 128.75421,35.2973999 128.732819,35.3069821 L127.744737,35.3069821 Z M168,27.2164299 C167.617226,27.2330145 167.226384,27.2055577 166.853742,27.2744762 C165.828132,27.4639099 165.083412,28.291669 164.963513,29.3217609 C164.944187,29.4876076 164.933679,29.6554812 164.933492,29.8226178 C164.931428,31.5348923 164.932178,33.1332854 164.932178,34.8457442 L164.932178,35.0650303 L163.330344,35.0650303 L163.330344,25.7988096 L164.840988,25.7988096 L164.840988,27.3544511 C165.029748,27.0922292 165.176478,26.8687047 165.343285,26.6604751 C165.818938,26.0665598 166.408861,25.6440194 167.193172,25.545617 C167.46224,25.5118949 167.738625,25.4735659 168,25.5992408 L168,27.2164299 Z M108.584829,35.0650303 L108.584829,22 L110.176156,22 L110.176156,35.0650303 L108.584829,35.0650303 Z M112.0343,35.0650303 L112.0343,25.7988096 L113.847035,25.7988096 L113.847035,35.0650303 L112.0343,35.0650303 Z M159.658527,35.0650303 L159.658527,25.7988096 L161.472201,25.7988096 L161.472201,35.0650303 L159.658527,35.0650303 Z M155.913157,35.0631876 L155.913157,33.1708773 L157.800384,33.1708773 L157.800384,35.0631876 L155.913157,35.0631876 Z" id="path-1"></path>
    </defs>
    <g stroke="none" stroke-width="1" fill="none" fill-rule="evenodd">
        <g id="Rewards---Checkout---loyality-when-used---Desktop" transform="translate(-220.000000, -1660.000000)">
            <g id="Group-6" transform="translate(200.000000, 1613.000000)">
                <g id="Group" transform="translate(-83.000000, 14.000000)">
                    <g id="Rectangle" transform="translate(5.000000, 11.000000)">
                        <mask id="mask-2" fill="white">
                            <use xlink:href="#path-1"></use>
                        </mask>
                        <use id="logotype" fill-opacity="0.25" fill="#FFFFFF" xlink:href="#path-1"></use>
                    </g>
                </g>
            </g>
        </g>
    </g>
</svg>
