<svg xmlns="http://www.w3.org/2000/svg" width="12" height="15" viewBox="0 0 12 15">
  <path fill="#9A9A9A" d="M10.7224161,4.00184455 L7.51451316,0.746751886 C7.44558642,0.677595317 7.35549468,0.6 7.26184421,0.6 L3.95841778,0.6 C2.94568167,0.6 2.24761112,1.17836297 2.24761112,2.01544561 L2.24761112,3.06987746 L1.61865461,3.06987746 C0.692264224,3.06987746 0,3.71286889 0,4.58658804 L0,12.8197187 C0,13.7442762 0.763625877,14.3901491 1.61865461,14.3901491 L7.09364798,14.3901491 C7.96965442,14.3901491 8.61584261,13.7134027 8.61584261,12.8197187 L8.61584261,11.9202717 L9.43341115,11.9202717 C10.2594082,11.9202717 10.8634537,11.1972151 10.8634537,10.2485763 L10.8634537,4.41904802 C10.8634537,4.41307915 10.9087806,4.4073161 10.9085933,4.40155306 C10.9087806,4.39537836 10.9336916,4.38940949 10.9336916,4.3832348 C10.9338789,4.21034338 10.859895,4.0627682 10.7224161,4.00184455 Z M7.49203705,1.97181111 L9.58044238,3.89316995 L7.49203705,3.89316995 L7.49203705,1.97181111 Z M7.86663891,12.8197187 C7.86663891,13.3060788 7.50364971,13.5668567 7.09364798,13.5668567 L1.61884191,13.5668567 C1.18374185,13.5668567 0.749391006,13.2826149 0.749391006,12.8197187 L0.749391006,4.58658804 C0.749391006,4.05144793 1.32908737,3.89316995 1.61884191,3.89316995 L4.49540953,3.89316995 L4.49540953,7.05893538 C4.49540953,7.2861641 4.75688163,7.39216301 4.96366185,7.39216301 L7.86682621,7.39216301 L7.86682621,12.8197187 L7.86663891,12.8197187 Z M7.43884359,6.56887053 L5.24442594,6.56887053 L5.24442594,4.53574973 L7.43884359,6.56887053 Z M9.43341115,11.0969792 L8.61584261,11.0969792 L8.61584261,6.99019046 C8.61584261,6.87451786 8.61846482,6.76440249 8.54092224,6.68639553 L5.27626709,3.38108202 C5.21558159,3.243798 5.10020422,3.14809025 4.95186189,3.14809025 C4.94511906,3.14809025 4.94455715,3.11063044 4.93781432,3.11104208 C4.93069689,3.11063044 4.92957308,3.06967164 4.92226834,3.06967164 L2.99681482,3.06967164 L2.99681482,2.01523978 C2.99681482,1.59062668 3.56246362,1.42308666 3.95841778,1.42308666 L6.74283335,1.42308666 L6.74283335,4.38302897 C6.74283335,4.6102577 7.00430544,4.71625661 7.21108566,4.71625661 L10.11425,4.71625661 L10.11425,10.2483705 C10.11425,10.7421401 9.8462224,11.0969792 9.43341115,11.0969792 Z" transform="translate(.402)"/>
</svg>
