<?xml version="1.0" encoding="UTF-8"?>
<svg width="35px" height="35px" viewBox="0 0 35 35" version="1.1" xmlns="http://www.w3.org/2000/svg" xmlns:xlink="http://www.w3.org/1999/xlink">
    <title>Combined Shape</title>
    <g stroke="none" stroke-width="1" fill="none" fill-rule="evenodd">
        <g id="Rewards---Profile-Dropdown---Desktop" transform="translate(-529.000000, -154.000000)" fill="#FFC107">
            <path d="M544.350877,169.964912 C543.859649,169.964912 543.429825,169.535088 543.429825,169.04386 L543.429825,165.973684 C543.429825,165.482456 543.859649,165.052632 544.350877,165.052632 C544.842105,165.052632 545.27193,165.482456 545.27193,165.973684 L545.27193,169.04386 C545.27193,169.535088 544.842105,169.964912 544.350877,169.964912 Z M548.649123,169.964912 C548.157895,169.964912 547.72807,169.535088 547.72807,169.04386 L547.72807,165.973684 C547.72807,165.482456 548.157895,165.052632 548.649123,165.052632 C549.140351,165.052632 549.570175,165.482456 549.570175,165.973684 L549.570175,169.04386 C549.570175,169.535088 549.140351,169.964912 548.649123,169.964912 Z M546.5,177.947368 C544.289474,177.947368 542.201754,177.087719 540.605263,175.491228 C540.236842,175.122807 540.236842,174.570175 540.605263,174.201754 C540.973684,173.833333 541.526316,173.833333 541.894737,174.201754 C543.122807,175.429825 544.719298,176.105263 546.5,176.105263 C548.77193,176.105263 550.859649,174.877193 552.026316,172.973684 C552.394737,172.298246 552.701754,171.745614 552.824561,171.008772 C552.947368,170.517544 553.377193,170.149123 553.868421,170.27193 C554.359649,170.394737 554.72807,170.824561 554.605263,171.315789 C554.421053,172.298246 554.052632,173.035088 553.561404,173.833333 C552.149123,176.412281 549.385965,177.947368 546.5,177.947368 Z M546.561404,185.008772 C546.561404,184.517544 546.929825,184.087719 547.421053,184.026316 C547.912281,183.964912 548.342105,184.394737 548.403509,184.885965 C548.464912,185.377193 548.035088,185.807018 547.54386,185.868421 C547.54386,185.868421 547.482456,185.868421 547.482456,185.868421 C546.991228,185.868421 546.561404,185.5 546.561404,185.008772 Z M543.614035,185.622807 C543.122807,185.5 542.815789,185.008772 542.877193,184.517544 C543,184.026316 543.491228,183.719298 543.982456,183.780702 C544.473684,183.903509 544.780702,184.394737 544.719298,184.885965 C544.657895,185.315789 544.22807,185.622807 543.798246,185.622807 C543.736842,185.684211 543.675439,185.622807 543.614035,185.622807 Z M550.184211,184.517544 C550,184.026316 550.245614,183.535088 550.736842,183.350877 C551.22807,183.166667 551.719298,183.412281 551.903509,183.903509 C552.087719,184.394737 551.842105,184.885965 551.350877,185.070175 C551.22807,185.131579 551.166667,185.131579 551.04386,185.131579 C550.675439,185.131579 550.307018,184.885965 550.184211,184.517544 Z M539.929825,184.333333 C539.5,184.087719 539.315789,183.535088 539.561404,183.105263 C539.807018,182.675439 540.359649,182.491228 540.789474,182.736842 C541.219298,182.982456 541.403509,183.535088 541.157895,183.964912 C540.973684,184.27193 540.666667,184.45614 540.359649,184.45614 C540.175439,184.45614 540.052632,184.394737 539.929825,184.333333 Z M553.561404,183.04386 C553.254386,182.614035 553.377193,182.061404 553.745614,181.754386 C554.175439,181.447368 554.72807,181.570175 555.035088,181.938596 C555.342105,182.368421 555.219298,182.921053 554.789474,183.22807 C554.605263,183.350877 554.421053,183.412281 554.236842,183.412281 C554.052632,183.412281 553.745614,183.289474 553.561404,183.04386 Z M536.675439,182.061404 C536.307018,181.692982 536.307018,181.140351 536.614035,180.77193 C536.982456,180.403509 537.535088,180.403509 537.903509,180.710526 C538.27193,181.078947 538.27193,181.631579 537.964912,182 C537.780702,182.184211 537.535088,182.307018 537.289474,182.307018 C537.105263,182.307018 536.859649,182.245614 536.675439,182.061404 Z M556.447368,180.710526 C556.017544,180.403509 555.95614,179.789474 556.324561,179.421053 C556.631579,179.052632 557.245614,178.929825 557.614035,179.298246 C557.982456,179.605263 558.04386,180.219298 557.736842,180.587719 C557.552632,180.833333 557.307018,180.894737 557,180.894737 C556.815789,180.894737 556.570175,180.833333 556.447368,180.710526 Z M534.219298,179.052632 C533.973684,178.622807 534.096491,178.070175 534.526316,177.763158 C534.95614,177.517544 535.508772,177.640351 535.815789,178.070175 C536.061404,178.5 535.938596,179.052632 535.508772,179.359649 C535.385965,179.421053 535.201754,179.482456 535.017544,179.482456 C534.649123,179.482456 534.342105,179.359649 534.219298,179.052632 Z M558.535088,177.701754 C558.04386,177.517544 557.859649,176.964912 558.04386,176.473684 C558.22807,175.982456 558.780702,175.798246 559.27193,175.982456 C559.763158,176.166667 559.947368,176.719298 559.763158,177.210526 C559.640351,177.578947 559.27193,177.763158 558.903509,177.763158 C558.780702,177.763158 558.657895,177.763158 558.535088,177.701754 Z M532.622807,175.429825 C532.5,174.938596 532.745614,174.447368 533.236842,174.324561 C533.72807,174.201754 534.219298,174.447368 534.403509,174.938596 C534.526316,175.429825 534.280702,175.921053 533.789474,176.105263 C533.72807,176.105263 533.605263,176.166667 533.54386,176.166667 C533.114035,176.105263 532.745614,175.859649 532.622807,175.429825 Z M559.763158,174.201754 C559.27193,174.140351 558.903509,173.649123 558.964912,173.157895 C559.026316,172.666667 559.517544,172.298246 560.008772,172.359649 C560.5,172.421053 560.868421,172.912281 560.807018,173.403509 C560.745614,173.894737 560.315789,174.201754 559.885965,174.201754 C559.824561,174.263158 559.824561,174.201754 559.763158,174.201754 Z M532.070175,171.561404 C532.070175,171.5 532.070175,171.5 532.070175,171.561404 C532.070175,171.008772 532.5,170.578947 532.991228,170.578947 C533.482456,170.578947 533.912281,171.008772 533.912281,171.5 C533.912281,171.991228 533.482456,172.421053 532.991228,172.421053 C532.5,172.482456 532.070175,172.052632 532.070175,171.561404 Z M558.964912,169.780702 C558.903509,169.289474 559.27193,168.798246 559.763158,168.736842 C560.254386,168.675439 560.745614,169.04386 560.807018,169.535088 C560.868421,170.026316 560.5,170.517544 560.008772,170.578947 C559.947368,170.578947 559.947368,170.578947 559.885965,170.578947 C559.394737,170.578947 559.026316,170.210526 558.964912,169.780702 Z M533.236842,168.736842 C532.745614,168.614035 532.438596,168.122807 532.622807,167.570175 C532.745614,167.078947 533.236842,166.77193 533.72807,166.95614 C534.219298,167.078947 534.526316,167.631579 534.342105,168.122807 C534.219298,168.552632 533.850877,168.798246 533.482456,168.798246 C533.421053,168.798246 533.298246,168.736842 533.236842,168.736842 Z M558.04386,166.464912 C557.859649,165.973684 558.04386,165.482456 558.535088,165.236842 C559.026316,165.052632 559.578947,165.236842 559.763158,165.72807 C559.947368,166.219298 559.763158,166.710526 559.27193,166.95614 C559.149123,167.017544 559.026316,167.017544 558.903509,167.017544 C558.535088,167.017544 558.166667,166.833333 558.04386,166.464912 Z M534.464912,165.236842 C534.035088,164.991228 533.912281,164.438596 534.157895,163.947368 C534.403509,163.517544 535.017544,163.394737 535.447368,163.640351 C535.877193,163.885965 536,164.5 535.754386,164.929825 C535.570175,165.236842 535.263158,165.359649 534.95614,165.359649 C534.77193,165.421053 534.649123,165.359649 534.464912,165.236842 Z M556.263158,163.517544 C555.95614,163.149123 556.017544,162.535088 556.385965,162.22807 C556.754386,161.921053 557.368421,161.982456 557.675439,162.350877 C557.982456,162.719298 557.921053,163.333333 557.552632,163.640351 C557.368421,163.763158 557.184211,163.824561 556.938596,163.824561 C556.692982,163.885965 556.447368,163.763158 556.263158,163.517544 Z M536.614035,162.22807 C536.245614,161.859649 536.307018,161.307018 536.675439,160.938596 C537.04386,160.570175 537.657895,160.631579 537.964912,161 C538.333333,161.368421 538.27193,161.982456 537.903509,162.289474 C537.719298,162.473684 537.473684,162.535088 537.289474,162.535088 C537.04386,162.535088 536.798246,162.473684 536.614035,162.22807 Z M553.745614,161.184211 C553.315789,160.877193 553.254386,160.324561 553.5,159.894737 C553.807018,159.464912 554.359649,159.403509 554.789474,159.649123 C555.219298,159.95614 555.280702,160.508772 555.035088,160.938596 C554.850877,161.184211 554.54386,161.307018 554.298246,161.307018 C554.114035,161.368421 553.929825,161.307018 553.745614,161.184211 Z M539.438596,159.95614 C539.192982,159.526316 539.377193,158.973684 539.807018,158.72807 C540.236842,158.482456 540.789474,158.666667 541.035088,159.096491 C541.280702,159.526316 541.096491,160.078947 540.666667,160.324561 C540.54386,160.385965 540.359649,160.447368 540.236842,160.447368 C539.929825,160.447368 539.622807,160.263158 539.438596,159.95614 Z M550.675439,159.649123 C550.184211,159.464912 549.938596,158.973684 550.122807,158.482456 C550.307018,157.991228 550.798246,157.745614 551.289474,157.929825 C551.780702,158.114035 552.026316,158.605263 551.842105,159.096491 C551.719298,159.464912 551.350877,159.710526 550.982456,159.710526 C550.921053,159.710526 550.798246,159.649123 550.675439,159.649123 Z M542.815789,158.482456 C542.692982,157.991228 543,157.5 543.552632,157.377193 C544.04386,157.254386 544.535088,157.622807 544.657895,158.114035 C544.780702,158.605263 544.412281,159.096491 543.921053,159.219298 C543.859649,159.219298 543.798246,159.219298 543.736842,159.219298 C543.307018,159.219298 542.938596,158.912281 542.815789,158.482456 Z M547.359649,158.912281 C546.868421,158.850877 546.438596,158.421053 546.5,157.929825 C546.5,157.438596 546.991228,157.070175 547.482456,157.070175 C547.973684,157.070175 548.403509,157.561404 548.342105,158.052632 C548.280702,158.54386 547.912281,158.912281 547.359649,158.912281 Z M546.5,189 C536.859649,189 529,181.140351 529,171.5 C529,161.859649 536.859649,154 546.5,154 C556.140351,154 564,161.859649 564,171.5 C564,181.140351 556.140351,189 546.5,189 Z M546.5,155.842105 C537.842105,155.842105 530.842105,162.842105 530.842105,171.5 C530.842105,180.157895 537.842105,187.157895 546.5,187.157895 C555.157895,187.157895 562.157895,180.157895 562.157895,171.5 C562.157895,162.842105 555.157895,155.842105 546.5,155.842105 Z" id="Combined-Shape"></path>
        </g>
    </g>
</svg>
