<?xml version="1.0" encoding="UTF-8"?>
<svg width="23px" height="23px" viewBox="0 0 23 23" version="1.1" xmlns="http://www.w3.org/2000/svg" xmlns:xlink="http://www.w3.org/1999/xlink">
    <title>Combined Shape</title>
    <defs>
        <path d="M203.382353,27.9411765 C203.084314,27.9411765 202.823529,27.6966912 202.823529,27.4172794 L202.823529,25.6709559 C202.823529,25.3915441 203.084314,25.1470588 203.382353,25.1470588 C203.680392,25.1470588 203.941176,25.3915441 203.941176,25.6709559 L203.941176,27.4172794 C203.941176,27.6966912 203.680392,27.9411765 203.382353,27.9411765 Z M205.617647,27.9411765 C205.319608,27.9411765 205.058824,27.6966912 205.058824,27.4172794 L205.058824,25.6709559 C205.058824,25.3915441 205.319608,25.1470588 205.617647,25.1470588 C205.915686,25.1470588 206.176471,25.3915441 206.176471,25.6709559 L206.176471,27.4172794 C206.176471,27.6966912 205.915686,27.9411765 205.617647,27.9411765 Z M204.523214,31.8529412 C203.313845,31.8529412 202.171663,31.4161779 201.29823,30.6050462 C201.096668,30.417862 201.096668,30.1370856 201.29823,29.9499014 C201.499791,29.7627172 201.802134,29.7627172 202.003695,29.9499014 C202.675567,30.5738489 203.549,30.91702 204.523214,30.91702 C205.766176,30.91702 206.908358,30.2930725 207.546636,29.3259539 C207.748197,28.9827828 207.916165,28.7020065 207.983353,28.327638 C208.05054,28.078059 208.285695,27.8908747 208.554443,27.9532695 C208.823192,28.0156642 209.024754,28.2340459 208.957566,28.4836248 C208.856786,28.9827828 208.655224,29.3571513 208.386475,29.7627172 C207.613823,31.0730068 206.102112,31.8529412 204.523214,31.8529412 Z M204.56503,35.856453 C204.56503,35.5895522 204.765586,35.356014 205.032995,35.3226514 C205.300404,35.2892888 205.534387,35.522827 205.567813,35.7897278 C205.601239,36.0566286 205.367256,36.2901668 205.099847,36.3235294 C205.099847,36.3235294 205.066421,36.3235294 205.066421,36.3235294 C204.799013,36.3235294 204.56503,36.1233538 204.56503,35.856453 Z M202.960577,36.190079 C202.693168,36.1233538 202.526038,35.856453 202.559464,35.5895522 C202.626316,35.3226514 202.893725,35.1558385 203.161134,35.1892011 C203.428542,35.2559263 203.595673,35.522827 203.562247,35.7897278 C203.528821,36.023266 203.294838,36.190079 203.060855,36.190079 C203.027429,36.2234416 202.994003,36.190079 202.960577,36.190079 Z M206.53717,35.5895522 C206.436891,35.3226514 206.570596,35.0557507 206.838005,34.9556629 C207.105413,34.8555751 207.372822,34.9890255 207.4731,35.2559263 C207.573379,35.522827 207.439674,35.7897278 207.172266,35.8898156 C207.105413,35.9231782 207.071987,35.9231782 207.005135,35.9231782 C206.804578,35.9231782 206.604022,35.7897278 206.53717,35.5895522 Z M200.955011,35.4894644 C200.721029,35.356014 200.62075,35.0557507 200.754455,34.8222125 C200.888159,34.5886743 201.188994,34.4885865 201.422977,34.6220369 C201.656959,34.7554873 201.757238,35.0557507 201.623533,35.2892888 C201.523255,35.4561018 201.356124,35.5561896 201.188994,35.5561896 C201.088716,35.5561896 201.021863,35.522827 200.955011,35.4894644 Z M208.375605,34.7888499 C208.208475,34.5553117 208.275327,34.2550483 208.475883,34.0882353 C208.709866,33.9214223 209.010701,33.9881475 209.177831,34.1883231 C209.344962,34.4218613 209.27811,34.7221247 209.044127,34.8889377 C208.943849,34.9556629 208.84357,34.9890255 208.743292,34.9890255 C208.643014,34.9890255 208.475883,34.9223003 208.375605,34.7888499 Z M199.183428,34.2550483 C198.982871,34.0548727 198.982871,33.7546093 199.150002,33.5544337 C199.350558,33.3542581 199.651393,33.3542581 199.85195,33.5210711 C200.052507,33.7212467 200.052507,34.0215101 199.885376,34.2216857 C199.785098,34.3217735 199.651393,34.3884987 199.517689,34.3884987 C199.417411,34.3884987 199.283706,34.3551361 199.183428,34.2550483 Z M209.946632,33.5210711 C209.712649,33.3542581 209.679223,33.0206321 209.879779,32.8204565 C210.04691,32.6202809 210.381171,32.5535558 210.581728,32.7537313 C210.782284,32.9205443 210.81571,33.2541703 210.64858,33.4543459 C210.548301,33.5877963 210.414597,33.6211589 210.247467,33.6211589 C210.147188,33.6211589 210.013484,33.5877963 209.946632,33.5210711 Z M197.846384,32.6202809 C197.71268,32.3867428 197.779532,32.0864794 198.013515,31.9196664 C198.247497,31.786216 198.548332,31.8529412 198.715463,32.0864794 C198.849167,32.3200176 198.782315,32.6202809 198.548332,32.7870939 C198.48148,32.8204565 198.381202,32.8538191 198.280923,32.8538191 C198.080367,32.8538191 197.913236,32.7870939 197.846384,32.6202809 Z M211.083119,31.8863038 C210.81571,31.786216 210.715432,31.4859526 210.81571,31.2190518 C210.915989,30.952151 211.216823,30.8520632 211.484232,30.952151 C211.751641,31.0522388 211.851919,31.3525022 211.751641,31.619403 C211.684789,31.8195786 211.484232,31.9196664 211.283676,31.9196664 C211.216823,31.9196664 211.149971,31.9196664 211.083119,31.8863038 Z M196.977305,30.6518876 C196.910453,30.3849868 197.044158,30.118086 197.311566,30.0513608 C197.578975,29.9846356 197.846384,30.118086 197.946662,30.3849868 C198.013515,30.6518876 197.87981,30.9187884 197.612401,31.0188762 C197.578975,31.0188762 197.512123,31.0522388 197.478697,31.0522388 C197.244714,31.0188762 197.044158,30.8854258 196.977305,30.6518876 Z M211.751641,29.9846356 C211.484232,29.951273 211.283676,29.6843723 211.317102,29.4174715 C211.350528,29.1505707 211.617937,28.9503951 211.885345,28.9837577 C212.152754,29.0171203 212.353311,29.2840211 212.319885,29.5509219 C212.286459,29.8178227 212.052476,29.9846356 211.818493,29.9846356 C211.785067,30.0179982 211.785067,29.9846356 211.751641,29.9846356 Z M196.676471,28.5500439 C196.676471,28.5166813 196.676471,28.5166813 196.676471,28.5500439 C196.676471,28.2497805 196.910453,28.0162423 197.177862,28.0162423 C197.445271,28.0162423 197.679254,28.2497805 197.679254,28.5166813 C197.679254,28.7835821 197.445271,29.0171203 197.177862,29.0171203 C196.910453,29.0504829 196.676471,28.8169447 196.676471,28.5500439 Z M211.317102,27.5825285 C211.283676,27.3156277 211.484232,27.048727 211.751641,27.0153644 C212.01905,26.9820018 212.286459,27.1821773 212.319885,27.4490781 C212.353311,27.7159789 212.152754,27.9828797 211.885345,28.0162423 C211.851919,28.0162423 211.851919,28.0162423 211.818493,28.0162423 C211.551084,28.0162423 211.350528,27.8160667 211.317102,27.5825285 Z M197.311566,27.0153644 C197.044158,26.9486392 196.877027,26.6817384 196.977305,26.381475 C197.044158,26.1145742 197.311566,25.9477612 197.578975,26.047849 C197.846384,26.1145742 198.013515,26.4148376 197.913236,26.6817384 C197.846384,26.9152766 197.645827,27.048727 197.445271,27.048727 C197.411845,27.048727 197.344993,27.0153644 197.311566,27.0153644 Z M210.81571,25.7809482 C210.715432,25.5140474 210.81571,25.2471466 211.083119,25.1136962 C211.350528,25.0136084 211.651363,25.1136962 211.751641,25.380597 C211.851919,25.6474978 211.751641,25.9143986 211.484232,26.047849 C211.41738,26.0812116 211.350528,26.0812116 211.283676,26.0812116 C211.083119,26.0812116 210.882562,25.9811238 210.81571,25.7809482 Z M197.980088,25.1136962 C197.746106,24.9802458 197.679254,24.6799824 197.812958,24.4130817 C197.946662,24.1795435 198.280923,24.1128183 198.514906,24.2462687 C198.748889,24.3797191 198.815741,24.713345 198.682036,24.9468832 C198.581758,25.1136962 198.414628,25.1804214 198.247497,25.1804214 C198.147219,25.213784 198.080367,25.1804214 197.980088,25.1136962 Z M209.846353,24.1795435 C209.679223,23.9793679 209.712649,23.6457419 209.913206,23.4789289 C210.113762,23.3121159 210.448023,23.3454785 210.615154,23.5456541 C210.782284,23.7458297 210.748858,24.0794557 210.548301,24.2462687 C210.448023,24.3129939 210.347745,24.3463565 210.21404,24.3463565 C210.080336,24.3797191 209.946632,24.3129939 209.846353,24.1795435 Z M199.150002,23.4789289 C198.949445,23.2787533 198.982871,22.9784899 199.183428,22.7783143 C199.383985,22.5781387 199.718246,22.6115013 199.885376,22.8116769 C200.085933,23.0118525 200.052507,23.3454785 199.85195,23.5122915 C199.751672,23.6123793 199.617967,23.6457419 199.517689,23.6457419 C199.383985,23.6457419 199.25028,23.6123793 199.150002,23.4789289 Z M208.475883,22.9117647 C208.241901,22.7449517 208.208475,22.4446883 208.342179,22.2111501 C208.509309,21.9776119 208.810144,21.9442493 209.044127,22.0776997 C209.27811,22.2445127 209.311536,22.5447761 209.177831,22.7783143 C209.077553,22.9117647 208.910423,22.9784899 208.776718,22.9784899 C208.67644,23.0118525 208.576162,22.9784899 208.475883,22.9117647 Z M200.687602,22.2445127 C200.553898,22.0109745 200.654176,21.7107112 200.888159,21.5772608 C201.122142,21.4438104 201.422977,21.5438982 201.556681,21.7774363 C201.690385,22.0109745 201.590107,22.3112379 201.356124,22.4446883 C201.289272,22.4780509 201.188994,22.5114135 201.122142,22.5114135 C200.955011,22.5114135 200.787881,22.4113257 200.687602,22.2445127 Z M206.804578,22.0776997 C206.53717,21.9776119 206.403465,21.7107112 206.503744,21.4438104 C206.604022,21.1769096 206.871431,21.0434592 207.138839,21.143547 C207.406248,21.2436348 207.539953,21.5105356 207.439674,21.7774363 C207.372822,21.9776119 207.172266,22.1110623 206.971709,22.1110623 C206.938283,22.1110623 206.871431,22.0776997 206.804578,22.0776997 Z M202.526038,21.4438104 C202.459186,21.1769096 202.626316,20.9100088 202.927151,20.8432836 C203.19456,20.7765584 203.461969,20.976734 203.528821,21.2436348 C203.595673,21.5105356 203.395116,21.7774363 203.127708,21.8441615 C203.094281,21.8441615 203.060855,21.8441615 203.027429,21.8441615 C202.793447,21.8441615 202.59289,21.6773486 202.526038,21.4438104 Z M204.999569,21.6773486 C204.73216,21.643986 204.498178,21.4104478 204.531604,21.143547 C204.531604,20.8766462 204.799013,20.6764706 205.066421,20.6764706 C205.33383,20.6764706 205.567813,20.9433714 205.534387,21.2102722 C205.500961,21.477173 205.300404,21.6773486 204.999569,21.6773486 Z M204.5,38 C199.266667,38 195,33.7333333 195,28.5 C195,23.2666667 199.266667,19 204.5,19 C209.733333,19 214,23.2666667 214,28.5 C214,33.7333333 209.733333,38 204.5,38 Z M204.5,20 C199.8,20 196,23.8 196,28.5 C196,33.2 199.8,37 204.5,37 C209.2,37 213,33.2 213,28.5 C213,23.8 209.2,20 204.5,20 Z" id="path-1"></path>
        <filter x="-18.4%" y="-13.2%" width="136.8%" height="136.8%" filterUnits="objectBoundingBox" id="filter-2">
            <feOffset dx="0" dy="1" in="SourceAlpha" result="shadowOffsetOuter1"></feOffset>
            <feGaussianBlur stdDeviation="1" in="shadowOffsetOuter1" result="shadowBlurOuter1"></feGaussianBlur>
            <feColorMatrix values="0 0 0 0 0   0 0 0 0 0   0 0 0 0 0  0 0 0 0.35 0" type="matrix" in="shadowBlurOuter1"></feColorMatrix>
        </filter>
    </defs>
    <g stroke="none" stroke-width="1" fill="none" fill-rule="evenodd">
        <g id="Rewards---MyAccount---Desktop" transform="translate(-1321.000000, -237.000000)">
            <g id="Group-11" transform="translate(200.000000, 186.000000)">
                <g id="Group" transform="translate(923.000000, 22.000000)">
                    <g id="Rectangle" transform="translate(5.000000, 11.000000)">
                        <g id="Combined-Shape">
                            <use fill="black" fill-opacity="1" filter="url(#filter-2)" xlink:href="#path-1"></use>
                            <use fill="#FFFFFF" fill-rule="evenodd" xlink:href="#path-1"></use>
                        </g>
                    </g>
                </g>
            </g>
        </g>
    </g>
</svg>
