<?xml version="1.0" encoding="UTF-8"?>
<svg width="19px" height="19px" viewBox="0 0 19 19" version="1.1" xmlns="http://www.w3.org/2000/svg" xmlns:xlink="http://www.w3.org/1999/xlink">
    <title>Telegram</title>
    <g stroke="none" stroke-width="1" fill="none" fill-rule="evenodd">
        <g id="Artboard" transform="translate(-202.000000, -180.000000)" fill="#383847">
            <path d="M213.416829,187.403609 C213.526065,187.339431 213.637886,187.481835 213.541605,187.562455 L209.520022,190.930883 C209.479936,190.964466 209.454424,191.010938 209.448458,191.061312 L209.293624,192.365015 C209.288567,192.407532 209.225725,192.413156 209.212344,192.372308 L208.57531,190.428028 C208.546133,190.339012 208.584174,190.242569 208.667784,190.19346 L213.416829,187.403609 Z M211.5,199 C206.253295,199 202,194.746705 202,189.5 C202,184.253295 206.253295,180 211.5,180 C216.746705,180 221,184.253295 221,189.5 C221,194.746705 216.746705,199 211.5,199 Z M215.450628,186.452543 C215.522447,186.109202 215.184712,185.823169 214.857881,185.95052 L206.271445,189.296563 C205.993329,189.404952 206.010206,189.804052 206.296465,189.888577 L208.47837,190.532885 L209.292658,193.116707 C209.377718,193.386596 209.719735,193.468417 209.917721,193.26626 L211.045823,192.114436 L213.259228,193.739151 C213.530103,193.937982 213.915848,193.79026 213.984651,193.461373 L215.450628,186.452543 Z"></path>
        </g>
    </g>
</svg>