<?xml version="1.0" encoding="UTF-8"?>
<svg width="20px" height="19px" viewBox="0 0 20 19" version="1.1" xmlns="http://www.w3.org/2000/svg" xmlns:xlink="http://www.w3.org/1999/xlink">
    <title>Whatsapp</title>
    <g stroke="none" stroke-width="1" fill="none" fill-rule="evenodd">
        <g id="Artboard" transform="translate(-226.000000, -180.000000)" fill="#383847" fill-rule="nonzero">
            <path d="M235.540541,180 C240.786444,180 245.040541,184.254097 245.040541,189.5 C245.040541,194.745903 240.786444,199 235.540541,199 C230.294638,199 226.040541,194.745903 226.040541,189.5 C226.040541,184.254097 230.294638,180 235.540541,180 Z M235.741888,195.031181 C238.875456,195.031181 241.426435,192.481216 241.42774,189.347069 C241.42832,187.828339 240.837469,186.400208 239.763906,185.325775 C238.690489,184.251488 237.262792,183.659477 235.741888,183.658897 C232.607885,183.658897 230.057195,186.208572 230.055891,189.342575 C230.055456,190.344383 230.317251,191.322273 230.814894,192.184196 L230.0082,195.129753 L233.022322,194.339294 C233.852789,194.792145 234.787916,195.030746 235.739569,195.031181 L235.741888,195.031181 C235.742033,195.031181 235.741743,195.031181 235.741888,195.031181 Z M235.79258,184.5 C237.06116,184.500437 238.253833,184.995062 239.150595,185.892525 C240.047357,186.789989 240.540977,187.982916 240.540541,189.251748 C240.539375,191.869981 238.408562,194 235.790541,194 L235.788646,194 C234.936321,193.999709 234.100315,193.770826 233.371103,193.338121 L233.197579,193.235262 L231.399829,193.706722 L231.879753,191.954483 L231.766838,191.774844 C231.29143,191.018848 231.040249,190.145132 231.040541,189.24796 C231.041706,186.629873 233.172519,184.5 235.79258,184.5 Z M238.586458,191.289398 C238.705492,190.955909 238.705492,190.670207 238.669651,190.610619 C238.633955,190.551031 238.538815,190.515336 238.396032,190.443801 C238.25325,190.372412 237.551284,190.026976 237.420302,189.97948 C237.289467,189.931839 237.194181,189.907946 237.099041,190.05087 C237.003902,190.193793 236.730138,190.515336 236.646945,190.610619 C236.563607,190.705756 236.480268,190.717702 236.337631,190.646313 C236.194849,190.574778 235.734739,190.424133 235.189251,189.937812 C234.764837,189.559304 234.478106,189.091778 234.394913,188.949 C234.311575,188.806076 234.394185,188.736144 234.457563,188.657616 C234.60865,188.470256 234.766876,188.264684 234.814519,188.169402 C234.862016,188.074119 234.838268,187.990783 234.802572,187.919248 C234.766876,187.847859 234.481311,187.145332 234.362277,186.859484 C234.246448,186.581066 234.128725,186.6188 234.041016,186.61443 C233.957823,186.61035 233.862538,186.609476 233.767398,186.609476 C233.672258,186.609476 233.517528,186.645171 233.386547,186.788095 C233.255712,186.930873 232.886808,187.276309 232.886808,187.978836 C232.886808,188.681509 233.398494,189.360289 233.469885,189.455572 C233.541277,189.550854 234.476795,190.992623 235.909138,191.610941 C236.249922,191.757944 236.515818,191.845796 236.72329,191.911649 C237.065386,192.02019 237.376593,192.004892 237.622675,191.968178 C237.897022,191.927093 238.467424,191.622742 238.586458,191.289398 Z"></path>
        </g>
    </g>
</svg>